<?xml version="1.0" standalone="no"?>
<!DOCTYPE svg PUBLIC "-//W3C//DTD SVG 1.1//EN" "http://www.w3.org/Graphics/SVG/1.1/DTD/svg11.dtd" >
<svg xmlns="http://www.w3.org/2000/svg">
  <metadata>Created by iconfont</metadata>
  <defs>
  <font id="iconfont" horiz-adv-x="1024">
    <font-face
      font-family="iconfont"
      font-weight="400"
      font-stretch="normal"
      units-per-em="1024"
      ascent="896"
      descent="-128"
    />
      <missing-glyph />
      
      <glyph glyph-name="mouse" unicode="&#58951;" d="M260.266667 601.6a33.962667 33.962667 0 0 0-24.132267 10.001067l-89.6 89.6A34.133333 34.133333 0 0 0 136.533333 725.333333V776.533333H85.333333a34.133333 34.133333 0 0 0 0 68.266667h85.333334a34.133333 34.133333 0 0 0 34.133333-34.133333v-71.185067l79.598933-79.616a34.133333 34.133333 0 0 0-24.132266-58.2656zM682.666667-59.733333000000016h-8.533334c-71.2192 1.809067-133.137067 28.7744-184.456533 80.093866l-241.476267 241.493334c-52.548267 52.565333-79.496533 117.435733-80.093866 192.836266 0 75.042133 26.948267 139.963733 80.059733 193.0752l0.085333 0.1024c53.128533 52.497067 117.981867 79.428267 192.768 80.008534 75.6736-0.597333 140.544-27.5456 193.109334-80.093867l60.586666-60.586667 180.906667-180.906666c47.701333-47.6672 74.3424-104.704 79.223467-169.506134 0.5632-7.850667 0.887467-15.633067 0.887466-23.4496v-17.066666a16.725333 16.725333 0 0 0-0.1536-2.269867c-4.693333-67.822933-31.607467-125.9008-80.0256-173.7216C822.493867-32.785067000000026 757.589333-59.733333000000016 682.666667-59.733333000000016zM344.9856 213.33333300000004l168.840533-168.840533c45.550933-45.585067 98.133333-68.5056 160.733867-70.0928H682.666667c66.4576 0 121.685333 22.9376 168.840533 70.0928 42.717867 42.171733 66.269867 93.3376 70.075733 152.1152l-0.836266 38.365867c-4.369067 56.081067-27.665067 105.608533-69.256534 147.182933L682.666667 551.0144 344.9856 213.33333300000004z m-84.360533 397.892267c-39.253333-44.373333-58.385067-95.6928-58.385067-156.416 0.529067-66.9184 23.4496-122.197333 70.0928-168.840533l48.520533-48.520534 156.7744 156.7744-37.0688 37.0688a66.542933 66.542933 0 0 0-29.252266-6.331733c-16.008533 0-30.122667 5.9904-41.9328 17.800533l-59.733334 59.733334a61.986133 61.986133 0 0 0-18.6368 41.949866c0.477867 10.973867 3.140267 20.497067 7.816534 28.603734l-38.1952 38.178133z m204.066133-155.767467l37.0688-37.0688 156.7744 156.7744-48.520533 48.520534c-46.6432 46.6432-101.922133 69.563733-168.977067 70.0928-60.450133-0.477867-111.786667-19.626667-156.194133-58.453334l37.7344-37.751466a55.2448 55.2448 0 0 0 28.125866 7.4752c17.152 0 31.829333-5.9904 43.639467-17.800534l59.733333-59.733333a56.405333 56.405333 0 0 0 16.930134-43.588267 55.0912 55.0912 0 0 0-6.314667-28.4672z m-128.221867 110.250667a16.8448 16.8448 0 0 0-3.584-4.317867c-4.9664-4.3008-7.441067-9.6768-7.7824-16.913066 0.375467-6.109867 3.140267-12.305067 8.669867-17.851734l59.733333-59.733333c10.8544-10.8544 26.026667-9.386667 35.6352-2.850133a14.114133 14.114133 0 0 0 1.262934 1.570133c4.795733 5.154133 6.8608 10.9568 6.519466 18.2784 0.341333 8.789333-1.809067 14.301867-6.9632 19.456l-59.733333 59.733333c-5.3248 5.3248-11.52 7.799467-19.5072 7.799467-5.632 0-10.1376-1.621333-14.250667-5.1712z"  horiz-adv-x="1024" />
      
      <glyph glyph-name="time" unicode="&#59064;" d="M512.268258-126.835842c-68.658678 0-135.399619 13.564433-198.369591 40.316509-60.752236 25.809077-115.373446 62.712976-162.346233 109.685763-46.971763 46.971763-83.875662 101.592974-109.685763 162.346233C15.115619 248.482634 1.551186 315.222551 1.551186 383.881229S15.115619 519.280849 41.866671 582.25082c25.810101 60.752236 62.714 115.373446 109.685763 162.346233 46.972787 46.971763 101.593997 83.875662 162.346233 109.685763 62.969971 26.751052 129.710912 40.315485 198.369591 40.315485s135.398595-13.564433 198.368567-40.315485c60.752236-25.810101 115.373446-62.714 162.346233-109.685763 46.971763-46.972787 83.875662-101.593997 109.685763-162.346233 26.752076-62.969971 40.316509-129.710912 40.316509-198.369591s-13.564433-135.398595-40.316509-198.368567c-25.809077-60.75326-62.712976-115.37447-109.685763-162.346233-46.971763-46.972787-101.592974-83.876686-162.346233-109.685763C647.666853-113.27141 580.925912-126.835842 512.268258-126.835842zM512.268258 845.451805c-62.018782 0-122.293887-12.247716-179.152287-36.403219-54.923257-23.333323-104.317532-56.709936-146.810821-99.204249s-75.870926-91.888588-99.204249-146.810821c-24.155503-56.8584-36.403219-117.133505-36.403219-179.152287 0-62.017758 12.247716-122.292863 36.403219-179.152287 23.333323-54.923257 56.709936-104.317532 99.204249-146.811845 42.493289-42.493289 91.888588-75.870926 146.810821-99.204249 56.8584-24.155503 117.133505-36.403219 179.152287-36.403219 62.017758 0 122.292863 12.247716 179.152287 36.403219 54.923257 23.333323 104.317532 56.71096 146.811845 99.204249 42.493289 42.494313 75.870926 91.888588 99.204249 146.811845 24.155503 56.8584 36.403219 117.133505 36.403219 179.152287s-12.247716 122.293887-36.403219 179.152287c-23.334347 54.923257-56.71096 104.317532-99.205273 146.810821-42.493289 42.493289-91.887565 75.870926-146.810821 99.204249C634.561121 833.204089 574.286016 845.451805 512.268258 845.451805zM509.715712 678.2114 509.715712 262.950134 509.715712 678.2114ZM445.416737 426.269058 676.001856 204.616315 445.416737 426.269058ZM693.03214 222.333627 534.289984 374.92428 534.289984 678.2114c0 13.5716-11.001648 24.573248-24.573248 24.573248s-24.573248-11.001648-24.573248-24.573248l0-256.045051-22.69749 21.817972c-9.784248 9.405411-25.341162 9.098245-34.744525-0.686003-9.405411-9.784248-9.098245-25.340138 0.686003-34.744525l56.756011-54.556706 0-91.046955c0-13.5716 11.001648-24.573248 24.573248-24.573248s24.573248 11.001648 24.573248 24.573248l0 43.804886 124.683635-119.852944c4.765162-4.580863 10.900283-6.85696 17.026189-6.85696 6.452525 0 12.894812 2.525925 17.719359 7.543987C703.123554 197.372326 702.815365 212.928216 693.03214 222.333627z"  horiz-adv-x="1025" />
      
      <glyph glyph-name="string" unicode="&#59661;" d="M875.6 380.1c2.1-0.8 4.4 0.3 5.2 2.4 0.2 0.4 0.2 0.9 0.2 1.4v58.3c0 1.8-1.1 3.3-2.8 3.8-6 1.8-17.2 3-27.2 3-32.9 0-61.7-16.7-73.5-41.2v28.6c0 4.4-3.6 8-8 8H717c-4.4 0-8-3.6-8-8V167c0-4.4 3.6-8 8-8h54.8c4.4 0 8 3.6 8 8V323.29999999999995c0 36.2 26.1 60.2 65.1 60.2 10.4-0.1 26.6-1.8 30.7-3.4zM338.6 420.6l-54.7 12.6c-61.2 14.2-87.7 34.8-87.7 70.7 0 44.6 39.1 73.5 96.9 73.5 52.8 0 91.4-26.5 99.9-68.9h70C455.9 584.4 387.6 637 293.4 637c-103.3 0-171-55.5-171-139 0-68.6 38.6-109.5 122.2-128.5l61.6-14.3c63.6-14.9 91.6-37.1 91.6-75.1 0-44.1-43.5-75.2-102.5-75.2-60.6 0-104.5 27.2-112.8 70.5H111c7.2-79.9 75.6-130.4 179.1-130.4C402.3 145 471 200.79999999999995 471 290.70000000000005c0 70.2-38.6 108.5-132.4 129.9zM877 167m-36 0a36 36 0 1 1 72 0 36 36 0 1 1-72 0ZM653 438.2h-51.4V500c0 4.4-3.6 8-8 8h-54.7c-4.4 0-8-3.6-8-8v-61.8H495c-4.4 0-8-3.6-8-8v-42.3c0-4.4 3.6-8 8-8h35.9v-147.5c0-56.2 27.4-79.4 93.1-79.4 11.7 0 23.6 1.2 33.8 3.1 1.9 0.3 3.2 2 3.2 3.9v49.3c0 2.2-1.8 4-4 4h-0.4c-4.9-0.5-6.2-0.6-8.3-0.8-4.1-0.3-7.8-0.5-12.6-0.5-24.1 0-34.1 10.3-34.1 35.6V379.9H653c4.4 0 8 3.6 8 8v42.3c0 4.4-3.6 8-8 8z"  horiz-adv-x="1024" />
      
      <glyph glyph-name="distance" unicode="&#60540;" d="M501.76 114.34666700000002c10.24 0 17.066667 10.24 13.653333 20.48-3.413333 20.48-6.826667 44.373333-10.24 68.266666 0 10.24-10.24 17.066667-20.48 13.653334-10.24 0-17.066667-10.24-13.653333-20.48 3.413333-23.893333 6.826667-44.373333 10.24-68.266667 0-10.24 6.826667-13.653333 20.48-13.653333-3.413333 0-3.413333 0 0 0zM348.16 500.053333c-20.48 6.826667-44.373333 13.653333-68.266667 17.066667-10.24 0-17.066667-6.826667-20.48-13.653333 0-10.24 6.826667-17.066667 13.653334-20.48 23.893333-3.413333 44.373333-6.826667 61.44-13.653334h6.826666c6.826667 0 13.653333 3.413333 17.066667 10.24 3.413333 6.826667 0 17.066667-10.24 20.48zM457.386667 404.48c-13.653333 23.893333-27.306667 40.96-44.373334 58.026667-6.826667 6.826667-17.066667 6.826667-23.893333 0-6.826667-6.826667-6.826667-17.066667 0-23.893334 13.653333-13.653333 27.306667-30.72 37.546667-47.786666 3.413333-6.826667 10.24-10.24 13.653333-10.24 3.413333 0 6.826667 0 6.826667 3.413333 10.24 3.413333 13.653333 13.653333 10.24 20.48zM481.28 250.88c10.24 0 17.066667 10.24 13.653333 20.48-3.413333 27.306667-10.24 47.786667-13.653333 68.266667-3.413333 10.24-10.24 13.653333-20.48 13.653333-10.24-3.413333-13.653333-10.24-13.653333-20.48 3.413333-17.066667 10.24-40.96 13.653333-64.853333 3.413333-13.653333 10.24-20.48 20.48-17.066667 0-3.413333 0 0 0 0zM529.066667 66.55999999999995c-3.413333 10.24-10.24 13.653333-20.48 10.24-10.24-3.413333-13.653333-10.24-10.24-20.48 6.826667-27.306667 17.066667-47.786667 27.306666-68.266667 3.413333-6.826667 10.24-10.24 13.653334-10.24 3.413333 0 6.826667 0 6.826666 3.413334 6.826667 3.413333 10.24 13.653333 6.826667 23.893333-10.24 20.48-17.066667 40.96-23.893333 61.44zM768-93.866667c-23.893333 0-44.373333 0-64.853333 3.413334-10.24 0-17.066667-3.413333-20.48-13.653334 0-10.24 3.413333-17.066667 13.653333-20.48 20.48-3.413333 44.373333-3.413333 71.68-3.413333 10.24 0 17.066667 6.826667 17.066667 17.066667s-6.826667 17.066667-17.066667 17.066666zM641.706667-73.38666699999999c-20.48 6.826667-37.546667 20.48-51.2 34.133334-6.826667 6.826667-17.066667 6.826667-23.893334 0-6.826667-6.826667-6.826667-17.066667 0-23.893334 17.066667-17.066667 37.546667-27.306667 61.44-37.546666h6.826667c6.826667 0 13.653333 3.413333 17.066667 10.24 3.413333 3.413333 0 13.653333-10.24 17.066666zM153.6 896C68.266667 896 0 827.733333 0 742.4c0-78.506667 126.293333-262.826667 139.946667-283.306667 3.413333-3.413333 6.826667-6.826667 13.653333-6.826666s10.24 3.413333 13.653333 6.826666c13.653333 20.48 139.946667 204.8 139.946667 283.306667C307.2 827.733333 238.933333 896 153.6 896z m0-136.533333c10.24 0 17.066667-6.826667 17.066667-17.066667s-6.826667-17.066667-17.066667-17.066667-17.066667 6.826667-17.066667 17.066667 6.826667 17.066667 17.066667 17.066667zM836.266667 486.4c-102.4 0-187.733333-88.746667-187.733334-194.56 0-102.4 167.253333-395.946667 174.08-409.6 3.413333-6.826667 10.24-10.24 13.653334-10.24s10.24 3.413333 13.653333 10.24c6.826667 13.653333 174.08 307.2 174.08 409.6 0 105.813333-85.333333 194.56-187.733333 194.56z m0-136.533333c27.306667 0 51.2-23.893333 51.2-51.2s-23.893333-51.2-51.2-51.2-51.2 23.893333-51.2 51.2 23.893333 51.2 51.2 51.2z"  horiz-adv-x="1024" />
      
      <glyph glyph-name="dash" unicode="&#59172;" d="M54.857143 425.142857h182.857143v-82.285714H54.857143z m365.714286 0h182.857142v-82.285714H420.571429z m365.714285 0h182.857143v-82.285714H786.285714z"  horiz-adv-x="1024" />
      
      <glyph glyph-name="line" unicode="&#58882;" d="M187.733333-128h-170.666666c-10.24 0-17.066667 6.826667-17.066667 17.066667v170.666666c0 10.24 6.826667 17.066667 17.066667 17.066667h170.666666c10.24 0 17.066667-6.826667 17.066667-17.066667v-170.666666c0-10.24-6.826667-17.066667-17.066667-17.066667zM34.133333-93.866667h136.533334v136.533334H34.133333v-136.533334zM1006.933333 691.2h-170.666666c-10.24 0-17.066667 6.826667-17.066667 17.066667v170.666666c0 10.24 6.826667 17.066667 17.066667 17.066667h170.666666c10.24 0 17.066667-6.826667 17.066667-17.066667v-170.666666c0-10.24-6.826667-17.066667-17.066667-17.066667zM853.333333 725.333333h136.533334V861.866667h-136.533334v-136.533334zM187.733333 42.66666699999996c-3.413333 0-10.24 0-13.653333 3.413333-6.826667 6.826667-6.826667 17.066667 0 23.893333l648.533333 648.533334c6.826667 6.826667 17.066667 6.826667 23.893334 0s6.826667-17.066667 0-23.893334l-648.533334-648.533333c0-3.413333-6.826667-3.413333-10.24-3.413333z"  horiz-adv-x="1024" />
      
      <glyph glyph-name="mesh" unicode="&#59774;" d="M853.333333 725.333333H170.666667a85.333333 85.333333 0 0 1-85.333334-85.333333v-512a85.333333 85.333333 0 0 1 85.333334-85.333333h682.666666a85.333333 85.333333 0 0 1 85.333334 85.333333V640a85.333333 85.333333 0 0 1-85.333334 85.333333z m0-228.266666a572.586667 572.586667 0 0 0-104.96-15.786667A768 768 0 0 1 712.96 640H853.333333zM170.666667 433.92A384 384 0 0 0 341.333333 469.333333a474.88 474.88 0 0 0 77.653334-5.973333 768 768 0 0 0 4.266666-79.36v-2.56A386.986667 386.986667 0 0 1 384 384a607.573333 607.573333 0 0 1-213.333333-38.4z m324.693333 11.946667l42.666667-14.933334a552.106667 552.106667 0 0 1 139.52-34.133333v-12.8a768 768 0 0 0-8.533334-113.066667 464.64 464.64 0 0 1-174.08 96.426667V384c2.986667 21.333333 1.706667 42.666667 0.426667 61.866667z m-11.946667 91.733333a770.56 770.56 0 0 1-26.453333 102.4h176.64a666.88 666.88 0 0 0 38.826667-157.013333A498.346667 498.346667 0 0 0 567.893333 512c-25.6 8.106667-53.333333 17.92-84.48 25.6z m165.546667-364.373333c-5.12-16.213333-10.24-31.573333-15.36-45.226667H417.28a486.826667 486.826667 0 0 1 67.84 153.6 426.666667 426.666667 0 0 0 163.84-108.373333zM377.6 640a637.44 637.44 0 0 0 26.88-88.746667A575.573333 575.573333 0 0 1 341.333333 554.666667a494.506667 494.506667 0 0 1-170.666666-28.16V640zM170.666667 253.866667A532.053333 532.053333 0 0 0 384 298.66666699999996h28.16a436.48 436.48 0 0 0-85.333333-170.666667H170.666667zM792.32 128a642.986667 642.986667 0 0 1-57.6 78.506667 827.733333 827.733333 0 0 1 19.2 177.493333v12.373333A646.4 646.4 0 0 1 853.333333 409.6V128z"  horiz-adv-x="1024" />
      
      <glyph glyph-name="arrowmove" unicode="&#59096;" d="M960 384 768 576 768 424 552 424 552 640 704 640 512 832 320 640 472 640 472 424 256 424 256 576 64 384 256 192 256 344 472 344 472 128 320 128 512-64 704 128 551.6 128 550.8 345 768 344.4 768 192Z"  horiz-adv-x="1024" />
      
      <glyph glyph-name="stream" unicode="&#59055;" d="M362.00448 348.11904000000004c20.86912-29.10208 43.34592-60.37504 71.22944-90.08128C369.664 184.8832 277.02272 118.32320000000004 95.21152 118.32320000000004l0 133.12c144.14848 0 202.53696 47.80032 254.17728 114.176C353.54624 359.89504 357.7344 354.07872 362.00448 348.11904000000004zM504.29952 450.18112c13.02528-18.15552 25.26208-35.18464 37.92896-50.82112 43.91936 48.45568 99.072 83.03616 204.544 89.76384l-32.39936-82.04288c-1.35168-3.39968-0.256-7.26016 2.6624-9.46176 1.44384-1.0752 3.16416-1.6384 4.88448-1.6384 1.7408 0 3.4816 0.5632 4.93568 1.67936L925.62432 550.5024000000001c1.9968 1.51552 3.16416 3.90144 3.16416 6.42048s-1.15712 4.90496-3.16416 6.42048L726.84544 716.17536c-2.89792 2.22208-6.92224 2.24256-9.82016 0.04096-2.9184-2.2016-4.01408-6.06208-2.6624-9.46176l33.30048-84.31616c-142.72512-7.4752-226.88768-56.71936-286.208-115.17952C477.3376 487.72096 491.30496 468.29568 504.29952 450.18112zM726.84544 370.33984c-1.46432 1.11616-3.20512 1.67936-4.93568 1.67936-1.72032 0-3.44064-0.5632-4.88448-1.6384-2.9184-2.2016-4.01408-6.06208-2.6624-9.46176l32.39936-82.04288c-150.94784 9.61536-198.87104 76.27776-258.23232 159.05792-67.65568 94.34112-151.84896 211.74272-393.3184 211.74272l0-133.12c173.11744 0 222.55616-68.9152 285.14304-156.20096 65.32096-91.0848 145.87904-203.20256 367.31904-214.80448l-33.30048-84.31616c-1.35168-3.39968-0.256-7.26016 2.6624-9.46176 2.89792-2.2016 6.92224-2.18112 9.82016 0.04096l198.77888 152.84224c1.9968 1.51552 3.16416 3.90144 3.16416 6.42048s-1.15712 4.90496-3.16416 6.42048L726.84544 370.33984z"  horiz-adv-x="1024" />
      
      <glyph glyph-name="vec2" unicode="&#58887;" d="M808.46466684 435.48147723v-25.74073863H537.7407386v270.72392824h25.74073863v76.32987023h-102.96295446v-76.32987023h25.74073863v-270.72392824h-270.72392824v25.74073863h-76.32987023v-102.96295446h76.32987023v25.74073863h270.72392824v-270.7582492h-25.74073863v-76.26122826h102.96295446v76.26122826h-25.74073863V358.2592614h270.72392824v-25.74073863h76.32987023v102.96295446z"  horiz-adv-x="1024" />
      
      <glyph glyph-name="axis" unicode="&#61402;" d="M516.5 33.700000000000045l-162.1 93.6V314.4L516.5 408l162.1-93.6v-187.1l-162.1-93.6zM374.4 138.79999999999995l142.1-82 142.1 82v164l-142.1 82-142.1-82v-164zM915.4-24.5c-1.7 0-3.4 0.4-5 1.3l-394 227.5-394-227.5c-4.8-2.8-10.9-1.1-13.7 3.7s-1.1 10.9 3.7 13.7l399 230.4c3.1 1.8 6.9 1.8 10 0l399-230.4c4.8-2.8 6.4-8.9 3.7-13.7-1.9-3.2-5.2-5-8.7-5zM506.5 676.6h20v-460.7h-20zM563.9 650.4h-0.4s-17.2-27.5-46.3-26.5c-30.9 1.1-46.7 27.6-46.7 27.6l15.8 76.1 26.9 128.8 31.1-126.6 19.4-78.9 0.2-0.5zM836.9-5.5l0.2 0.2s-10.1 21.4 2 38.7c12.8 18.5 35.3 17.7 35.3 17.7l40.3-39.6 68.2-67.1-89.7 30.8-55.9 19.2-0.4 0.1zM188.5-11.399999999999977l-0.2 0.2s10.1 21.4-2 38.7C173.5 46 151 45.200000000000045 151 45.200000000000045l-40.3-39.6-68.2-67.1 89.7 30.8 55.9 19.2 0.4 0.1z"  horiz-adv-x="1024" />
      
      <glyph glyph-name="json" unicode="&#59325;" d="M213.333333 768h85.333334v-85.333333H213.333333v-213.333334a85.333333 85.333333 0 0 0-85.333333-85.333333 85.333333 85.333333 0 0 0 85.333333-85.333333v-213.333334h85.333334v-85.333333H213.333333c-45.653333 11.52-85.333333 38.4-85.333333 85.333333v170.666667a85.333333 85.333333 0 0 1-85.333333 85.333333H0v85.333334h42.666667a85.333333 85.333333 0 0 1 85.333333 85.333333V682.666667a85.333333 85.333333 0 0 0 85.333333 85.333333m597.333334 0a85.333333 85.333333 0 0 0 85.333333-85.333333v-170.666667a85.333333 85.333333 0 0 1 85.333333-85.333333h42.666667v-85.333334h-42.666667a85.333333 85.333333 0 0 1-85.333333-85.333333v-170.666667a85.333333 85.333333 0 0 0-85.333333-85.333333h-85.333334v85.333333h85.333334v213.333334a85.333333 85.333333 0 0 0 85.333333 85.333333 85.333333 85.333333 0 0 0-85.333333 85.333333V682.666667h-85.333334V768h85.333334m-298.666667-512a42.666667 42.666667 0 0 0 42.666667-42.666667 42.666667 42.666667 0 0 0-42.666667-42.666666 42.666667 42.666667 0 0 0-42.666667 42.666666 42.666667 42.666667 0 0 0 42.666667 42.666667m-170.666667 0a42.666667 42.666667 0 0 0 42.666667-42.666667 42.666667 42.666667 0 0 0-42.666667-42.666666 42.666667 42.666667 0 0 0-42.666666 42.666666 42.666667 42.666667 0 0 0 42.666666 42.666667m341.333334 0a42.666667 42.666667 0 0 0 42.666666-42.666667 42.666667 42.666667 0 0 0-42.666666-42.666666 42.666667 42.666667 0 0 0-42.666667 42.666666 42.666667 42.666667 0 0 0 42.666667 42.666667z"  horiz-adv-x="1024" />
      
      <glyph glyph-name="texture" unicode="&#59618;" d="M396.373333 0h120.746667L896 378.88V499.626667M810.666667 0c23.466667 0 44.8 9.386667 60.16 25.173333 15.786667 15.36 25.173333 36.693333 25.173333 60.16v85.333334l-170.666667-170.666667M213.333333 768a85.333333 85.333333 0 0 1-85.333333-85.333333v-85.333334l170.666667 170.666667m208.213333 0L128 389.12v-120.746667L627.626667 768m204.373333-3.413333L131.413333 64c3.84-14.933333 11.52-28.16 21.76-38.826667 10.666667-10.24 23.893333-17.92 38.826667-21.76L893.013333 704c-8.106667 29.866667-31.146667 52.906667-61.013333 60.586667z"  horiz-adv-x="1024" />
      
      <glyph glyph-name="vec3" unicode="&#59105;" d="M516.5 33.700000000000045l-162.1 93.6V314.4L516.5 408l162.1-93.6v-187.1l-162.1-93.6zM374.4 138.79999999999995l142.1-82 142.1 82v164l-142.1 82-142.1-82v-164zM915.4-24.5c-1.7 0-3.4 0.4-5 1.3l-394 227.5-394-227.5c-4.8-2.8-10.9-1.1-13.7 3.7s-1.1 10.9 3.7 13.7l399 230.4c3.1 1.8 6.9 1.8 10 0l399-230.4c4.8-2.8 6.4-8.9 3.7-13.7-1.9-3.2-5.2-5-8.7-5zM506.5 676.6h20v-460.7h-20zM563.9 650.4h-0.4s-17.2-27.5-46.3-26.5c-30.9 1.1-46.7 27.6-46.7 27.6l15.8 76.1 26.9 128.8 31.1-126.6 19.4-78.9 0.2-0.5zM836.9-5.5l0.2 0.2s-10.1 21.4 2 38.7c12.8 18.5 35.3 17.7 35.3 17.7l40.3-39.6 68.2-67.1-89.7 30.8-55.9 19.2-0.4 0.1zM188.5-11.399999999999977l-0.2 0.2s10.1 21.4-2 38.7C173.5 46 151 45.200000000000045 151 45.200000000000045l-40.3-39.6-68.2-67.1 89.7 30.8 55.9 19.2 0.4 0.1z"  horiz-adv-x="1024" />
      
      <glyph glyph-name="boolean" unicode="&#58937;" d="M960-128H64a64 64 0 0 0-64 64V832a64 64 0 0 0 64 64h896a64 64 0 0 0 64-64v-896a64 64 0 0 0-64-64zM896 704a64 64 0 0 1-64 64H192a64 64 0 0 1-64-64v-640a64 64 0 0 1 64-64h640a64 64 0 0 1 64 64V704z m-512-512L192 448h128l126.464-168.576L704 640h128l-320-448H384z"  horiz-adv-x="1024" />
      
      <glyph glyph-name="xyz" unicode="&#58914;" d="M924.16 352H469.76V806.4c0 11.264-9.216 20.48-20.48 20.48s-20.48-9.216-20.48-20.48v-466.432L99.072 10.240000000000009c-7.936-7.936-7.936-20.992 0-28.928 4.096-4.096 9.216-5.888 14.592-5.888 5.12 0 10.496 2.048 14.592 5.888l329.728 329.728H924.16c11.264 0 20.48 9.216 20.48 20.48s-9.216 20.48-20.48 20.48zM370.944 775.424l78.336 78.336 78.336-78.336M884.992 410.88l78.336-78.336-78.336-78.336M191.744-36.86400000000003H80.896v110.848M308.736 11.519999999999982l-18.432-27.904 18.176-27.392H296.96l-10.496 17.664c-0.512 1.024-1.28 2.304-2.304 4.352h-0.256c0-0.256-0.768-1.536-2.56-4.352l-10.752-17.664h-11.264l18.688 27.136-17.92 28.16h11.52l10.24-18.432c0.512-1.024 1.28-2.56 2.304-4.352h0.256l13.568 22.784h10.752zM936.448 510.72l-25.088-63.744c-4.608-11.776-11.264-17.664-19.712-17.664-2.56 0-4.608 0.256-6.144 0.768v8.704c1.792-0.768 3.84-1.024 5.376-1.024 4.352 0 7.68 2.56 9.984 7.68l4.352 9.984-21.76 55.296h10.752l14.336-41.472 1.28-4.608h0.256c0.256 1.024 0.512 2.56 1.28 4.352l15.104 41.728h9.984zM613.12 793.344h-45.824v3.328l32.256 44.032h-29.184v8.192h43.008v-3.328L581.376 801.28h31.744v-7.936z"  horiz-adv-x="1024" />
      
      <glyph glyph-name="color" unicode="&#58976;" d="M163.797333 646.058667c125.44 167.082667 385.28 215.68 570.197334 100.693333 182.613333-113.493333 249.770667-331.776 174.933333-536.618667-70.613333-193.365333-256.682667-269.994667-390.784-172.714666-50.218667 36.437333-69.717333 82.133333-79.104 156.330666l-4.522667 42.154667-1.92 16.938667c-5.248 39.850667-13.269333 57.728-30.08 67.072-22.826667 12.714667-38.058667 13.013333-68.053333 1.408l-14.976-6.229334-7.637333-3.328c-43.264-18.773333-72.021333-25.386667-108.416-17.749333l-8.533334 2.005333-6.997333 2.005334c-118.997333 36.864-136.618667 198.272-24.106667 348.032z m41.984-286.549334l5.248-1.536 5.717334-1.322666c18.730667-3.712 34.730667-0.64 61.312 10.325333l25.685333 10.965333c51.285333 21.034667 84.693333 23.082667 129.962667-2.133333 39.125333-21.802667 54.4-55.381333 62.165333-113.493333l2.261333-19.584 2.346667-22.656 2.005333-18.048c7.338667-58.069333 20.693333-89.173333 53.248-112.810667 97.066667-70.4 236.117333-13.141333 293.12 142.890667 64.682667 177.152 7.424 363.264-148.650666 460.330666-156.8 97.450667-379.690667 55.765333-485.248-84.778666-88.533333-117.888-77.653333-225.28-9.173334-248.149334z m478.933334 85.077334a53.333333 53.333333 0 1 0 102.997333 27.648 53.333333 53.333333 0 0 0-102.997333-27.648z m21.077333-148.821334a53.333333 53.333333 0 1 0 103.04 27.605334 53.333333 53.333333 0 0 0-103.04-27.605334zM600.32 572.714667a53.333333 53.333333 0 1 0 103.04 27.605333 53.333333 53.333333 0 0 0-103.04-27.605333z m-1.194667-383.914667a53.333333 53.333333 0 1 0 102.997334 27.605333 53.333333 53.333333 0 0 0-102.997334-27.605333z m-149.205333 425.386667a53.333333 53.333333 0 1 0 103.04 27.605333 53.333333 53.333333 0 0 0-103.04-27.605333z"  horiz-adv-x="1024" />
      
      <glyph glyph-name="octets" unicode="&#59882;" d="M328 278h368a40 40 0 0 1 40 40v34h120a40 40 0 0 1 40 40V687a40 40 0 0 1-40 40H736v34a40 40 0 0 1-40 40H328a40 40 0 0 1-40-40v-132a40 40 0 0 1 40-40h368a40 40 0 0 1 40 40v34h96v-247h-96v34a40 40 0 0 1-40 40H328a40 40 0 0 1-40-40v-33.5H169a40 40 0 0 1-40-40v-295a40 40 0 0 1 40-40h119V8a40 40 0 0 1 40-40h368a40 40 0 0 1 40 40V140a40 40 0 0 1-40 40H328a40 40 0 0 1-40-40v-34.5h-95v247h95V318a40 40 0 0 1 40-40z m336 383H360v68h304zM360 418h304v-68H360z m0-310h304v-68H360z"  horiz-adv-x="1024" />
      
      <glyph glyph-name="remove" unicode="&#59124;" d="M775.715 183.65099999999995l-63.366-63.366c-8.387-8.387-20.035-13.046-31.683-13.046-11.648 0-23.297 4.659-31.684 13.046L512 257.26800000000003 375.018 120.28499999999997c-8.387-8.387-20.035-13.046-31.683-13.046-11.648 0-23.297 4.659-31.684 13.046l-63.366 63.366c-8.387 8.387-13.046 20.035-13.046 31.683 0 11.648 4.659 23.297 13.046 31.684L385.268 384 248.285 520.982c-8.387 8.387-13.046 20.035-13.046 31.683 0 11.648 4.659 23.297 13.046 31.684l63.366 63.366c8.387 8.387 20.035 13.046 31.684 13.046 11.647 0 23.296-4.659 31.683-13.046L512 510.732l136.982 136.982c8.387 8.387 20.035 13.046 31.684 13.046 11.647 0 23.296-4.659 31.683-13.046l63.366-63.366c8.387-8.387 13.046-20.035 13.046-31.684 0-11.647-4.659-23.296-13.046-31.683L638.732 384l136.982-136.982c8.387-8.387 13.046-20.035 13.046-31.684C788.761 203.687 784.102 192.038 775.715 183.65099999999995z"  horiz-adv-x="1024" />
      
      <glyph glyph-name="trash" unicode="&#59434;" d="M230.75-66L793.25-66 849.5 552.75 174.5 552.75zM624.5 721.5L624.5 834 399.5 834l0-112.5L118.25 721.5l0-168.75 56.25 56.25 675 0 56.25-56.25L905.75 721.5 624.5 721.5zM568.25 721.5l-112.5 0L455.75 777.75l112.5 0L568.25 721.5z"  horiz-adv-x="1024" />
      
      <glyph glyph-name="drag" unicode="&#58931;" d="M710.23616 659.01568c1.88416-1.56672 4.20864-2.37568 6.56384-2.37568 1.47456 0 2.95936 0.31744 4.34176 0.96256C724.736 659.29216 727.04 662.90688 727.04 666.88L727.04 680.96l40.96 0 0-40.96-10.24 0c-3.97312 0-7.58784-4.21888-9.2672-7.81312-1.6896-3.60448-1.13664-8.8064 1.40288-11.85792l25.6-31.20128c1.9456-2.33472 4.83328-3.92192 7.87456-3.92192s5.91872 1.2288 7.87456 3.56352l25.6 30.65856c2.53952 3.05152 3.09248 9.18528 1.40288 12.78976C816.54784 635.8118400000001 812.93312 640 808.96 640l-10.24 0 0 40.96 40.96 0 0-14.08c0-3.97312 2.304-7.58784 5.89824-9.27744 1.3824-0.64512 2.85696-0.96256 4.34176-0.96256 2.34496 0 4.67968 0.80896 6.56384 2.37568l30.72 25.6C889.52832 686.56128 890.88 689.4489599999999 890.88 692.48s-1.35168 5.91872-3.67616 7.86432l-30.72 25.6c-3.05152 2.53952-7.31136 3.08224-10.89536 1.41312C841.984 725.67808 839.68 722.06336 839.68 718.08L839.68 711.6800000000001l-40.96 0 0 40.96 10.24 0c3.97312 0 7.58784 0.37888 9.2672 3.98336 1.6896 3.60448 1.13664 6.89152-1.40288 9.94304l-25.6 30.23872c-3.90144 4.66944-11.83744 4.43392-15.73888-0.23552l-25.6-30.84288c-2.53952-3.05152-3.09248-5.44768-1.40288-9.04192C750.17216 753.08032 753.78688 752.64 757.76 752.64l10.24 0 0-40.96-40.96 0 0 6.4c0 3.97312-2.304 7.58784-5.89824 9.27744-3.56352 1.66912-7.8336 1.13664-10.89536-1.41312l-30.72-25.6C677.19168 698.40896 675.84 695.5212799999999 675.84 692.48s1.35168-5.91872 3.67616-7.86432L710.23616 659.01568zM834.37568 426.24c-4.16768 0-14.7456-1.4336-25.62048-4.8128-2.77504 36.99712-33.78176 66.2528-71.4752 66.2528-16.96768 0-32.58368-5.92896-44.87168-15.8208-9.08288 27.72992-33.09568 46.5408-62.83264 46.5408-19.69152 0-37.21216-8.09984-49.70496-21.32992l-3.15392 88.2176c34.95936 25.10848 57.79456 66.07872 57.79456 112.31232 0 76.22656-62.01344 138.24-138.24 138.24s-138.24-62.01344-138.24-138.24c0-53.00224 30.08512-98.93888 73.99424-122.10176l4.62848-216.40192c-8.27392-4.49536-20.82816-12.71808-36.89472-27.31008-55.59296-50.52416-73.78944-172.72832-11.008-267.3152 69.888-105.28768 151.77728-150.23104 273.83808-150.23104 129.32096 0 172.58496 64.90112 205.824 131.3792 31.96928 63.93856 32.33792 308.79744 32.33792 319.1808C900.7616 397.53728 869.74464 426.24 834.37568 426.24zM840.93952 59.361279999999965c-31.29344-62.58688-66.304-114.40128-178.33984-114.40128-111.98464 0-183.90016 39.54688-248.23808 136.4992-37.48864 56.48384-53.76 173.21984 6.07232 227.60448 6.46144 5.86752 12.16512 10.46528 16.9984 14.03904l2.29376-107.10016c0.18432-8.47872 6.85056-15.43168 15.68768-15.03232 8.47872 0.18432 15.2064 7.19872 15.03232 15.68768l-10.07616 470.70208c0 27.12576 16.85504 46.08 41.00096 46.08s41.00096-18.95424 41.0112-46.63296l10.24-286.72c0.27648-7.87456 6.48192-14.26432 14.336-14.77632 7.77216-0.48128 14.83776 4.99712 16.15872 12.76928l7.77216 46.08c0.14336 0.84992 0.21504 1.69984 0.21504 2.56 0 23.3472 16.54784 40.96 38.49216 40.96 24.75008 0 36.02432-21.22752 36.02432-40.96l0-30.72c0-8.48896 6.88128-15.36 15.36-15.36s15.36 6.87104 15.36 15.36c0 22.58944 18.37056 40.96 40.96 40.96s40.96-18.37056 40.96-40.96l0-66.56c0-8.47872 6.88128-15.36 15.36-15.36s15.36 6.88128 15.36 15.36l0 39.1168c6.144 2.99008 18.18624 6.97344 25.41568 6.97344 18.3296 0 35.65568-14.92992 35.65568-30.72C870.0416 296.02815999999996 864.79872 107.07968000000005 840.93952 59.361279999999965z"  horiz-adv-x="1229" />
      
      <glyph glyph-name="drag-left" unicode="&#59024;" d="M80 400h64v-32H80zM368 400h64v-32h-64zM272 400h64v-32h-64zM176 400h64v-32h-64zM768 640c-135.76 0-246.864-106.32-255.184-240H464v-32h48.816c8.32-133.68 119.424-240 255.184-240 141.152 0 256 114.848 256 256s-114.848 256-256 256z m0-480c-123.52 0-224 100.48-224 224s100.48 224 224 224 224-100.48 224-224-100.48-224-224-224zM146.336 539.312l-146.336-144v-22.624l146.336-144 23.808 22.624L48 374.624v18.752l122.144 123.312z"  horiz-adv-x="1024" />
      
      <glyph glyph-name="scene" unicode="&#59294;" d="M788.352 724.1386669999999l38.656-144.256-421.866667-110.528L832 469.333333v-362.666666a64 64 0 0 0-64-64H234.666667a64 64 0 0 0-64 64V469.333333h0.085333l-21.781333 83.968a64 64 0 0 0 45.376 77.909334l515.626666 138.176a64 64 0 0 0 78.378667-45.248zM768 266.66666699999996H234.666667L234.666667 106.66666699999996h533.333333v160zM381.525333 405.333333L234.666667 405.333333v-74.666666h120.554666l-2.24 0.896L381.525333 405.333333zM768 405.333333h-125.845333l-28.928-74.666666H768L768 405.333333z m-194.474667 0h-123.370666l-28.928-74.666666h125.994666l-2.24 0.896L573.525333 405.333333z m153.002667 302.229334l-515.626667-138.154667 20.629334-79.424 516.992 135.488-21.973334 82.090667z"  horiz-adv-x="1024" />
      
      <glyph glyph-name="bulb" unicode="&#59102;" d="M659.36204756-2.9417370800000526C655.62485029-3.0547749700000395 648.75672705-3.2530729100000144 639.38454717-3.5082062200000337 623.75728994-3.9336170499999525 606.87855723-4.3590621800000235 589.3758916-4.756115980000004 566.87907324-5.266462560000036 545.01067989-5.691684430000009 524.400425-6.003385019999996 486.54973057-6.575821939999969 455.03159521-6.734711479999987 432.04106006-6.387011779999966 419.22575352-6.193198889999962 409.299425-5.842916950000017 402.68589541-5.3428166600000395 399.69700244-5.116802409999991 397.56846289-4.870003770000039 396.62413965-4.684344499999952 397.0340958-4.764943720000019 397.64593408-4.934585800000036 398.8482541-5.461903190000044 405.41964893-8.344005530000004 410.93292675-13.430206999999996 410.93292675-24.42581285999995 410.93292675 11.10346869 410.93292675 11.10346869 410.93292675 57.49982395999996 410.93292675 94.21779545000004 410.93292675 94.21779545000004 410.93292675 125.54938646000005 410.93292675 154.51228294999999 410.93292675 154.51228294999999 410.93292675 161.86667250000005 410.93292675 168.06907084 408.25360654 173.96911488 403.58345205 178.05070805000003 402.22131523 179.24118127999998 399.53845039 181.65019476999998 395.72473818 185.17902181 389.29499756 191.12845862999995 382.11128896 198.00243713999998 374.36386221 205.70131312 352.20707862 227.71925237999994 330.04688838 251.86368861000005 309.41154073 277.31228021000004 271.20300576 324.43304584 242.78560771 370.42669065999996 228.20664746 412.6230975 221.12346464 433.12420628 217.48780479 452.29858675 217.48780479 469.93394437 217.48780479 642.0598839300001 357.02344971 781.59552797 529.14938925 781.59552797 701.27533057 781.59552797 840.81097637 642.0598839300001 840.81097637 469.93394437 840.81097637 454.10533852 837.60483096 437.07253792 831.32109511 418.96983334 816.05601846 374.99294964 783.53300762 326.77688227 738.89691084 277.44253850999996 715.96085557 252.09231146000002 691.32535596 228.09614583999996 666.69109648 206.25599789 658.07500977 198.61718372999997 650.08484404 191.80210687 642.93208614 185.90754895999999 638.68664375 182.40889651999998 635.69747744 180.02024202999996 634.17560557 178.83738890999996 628.93659131 174.76543998 625.87195068 168.50203499999998 625.87195068 161.86667424999996L625.87195068 61.54979584 647.36585352 83.04369867000003 400.18597666 83.04369867000003C388.31522187 83.04369867000003 378.69207295 73.42055238 378.69207295 61.54979584 378.69207295 49.67904105000002 388.31522187 40.05589476 400.18597666 40.05589476L647.36585352 40.05589476C659.2366083 40.05589476 668.85975723 49.67904105000002 668.85975723 61.54979584L668.85975723 161.86667424999996 660.55610146 144.89595697000004C662.39265342 146.32339125 665.70052783 148.96672640999998 670.27094404 152.73318685000004 677.81128467 158.94715071999997 686.193425 166.0965556 695.20905722 174.08959798 720.95113057 196.91190521 746.69196465 221.98472396 770.77382188 248.60135560000003 818.93876768 301.83598295 854.43011914 354.45268118 871.9318795 404.87318431 879.71012949 427.28140628 883.79878028 449.00256527 883.79878028 469.93394437 883.79878028 665.80139261 725.01683925 824.58333363 529.14938925 824.58333363 333.28194013 824.58333363 174.5 665.80139261 174.5 469.93394437 174.5 447.18072709 179.01773896 423.35428089 187.5755955 398.58497045 204.05714873 350.8818222 234.93147119 300.91163812 276.02138604 250.23740354999995 297.7021584 223.49953998 320.88066875 198.24560238000004 344.06258487 175.20895453000003 352.18370411 167.13872572000002 359.73507324 159.91293861999998 366.52912051 153.62641049 370.64968086 149.81365804999996 373.63415381 147.13382191000005 375.2945958 145.68263782999998L367.94512286 161.86667424999996C367.94512286 154.51228294999999 367.94512286 154.51228294999999 367.94512286 125.54938646000005 367.94512021 94.21779720999996 367.94512021 94.21779720999996 367.94512021 57.49982395999996 367.94512021 11.10346869 367.94512021 11.10346869 367.94512286-24.42581285999995 367.94512286-35.92892643000005 373.97860596-41.495037079999975 381.58215312-44.829823590000046 383.80011348-45.80258297 385.92302363-46.391192639999986 388.33122852-46.86465943999997 391.28431661-47.44525524000005 394.90280791-47.864809039999955 399.44450761-48.20824166 407.09946904-48.78709372000003 417.78318271-49.16410318999999 431.39100693-49.36990172000003 454.90518125-49.72551950000002 486.80255761-49.56472008000003 525.05047812-48.986274969999954 545.77774443-48.67280514000004 567.75217432-48.245522230000006 590.3508333-47.73286325000004 607.92242539-47.33424586000001 624.86529893-46.90718443000003 640.55434414-46.48009136999997 649.9719459-46.223723199999995 656.88299756-46.02418511999997 660.66171084-45.90988950999997 672.52703926-45.550996940000005 681.85484756-35.64130875000001 681.49595586-23.77598121999995 681.13706416-11.910652789999972 671.22737597-2.5828444999999647 659.36204756-2.9417370800000526L659.36204756-2.9417370800000526ZM395.73444307 358.0128975L503.20395459 250.54338509000002C511.28741709 242.45992259000002 524.28395411 242.11814584 532.78110107 249.76557855L640.25061347 346.48813822C649.07407637 354.42925482 649.7893584 368.01963187 641.84824268 376.84309299999995 633.90712607 385.66655589 620.31675166 386.38183792 611.49328789 378.4407222L504.02377637 281.71816253 533.60092286 280.94035423 426.13141045 388.40986664C417.73751914 396.80375795 404.12833438 396.80375795 395.73444307 388.40986664 387.34055175 380.01597532999995 387.34055175 366.40678792000006 395.73444307 358.0128975L395.73444307 358.0128975ZM496.90853721 254.99491868999996L496.90853721 72.29674856999998 539.89634199 72.29674856999998 539.89634199 254.99491868999996 496.90853721 254.99491868999996 496.90853721 254.99491868999996Z"  horiz-adv-x="1024" />
      
      <glyph glyph-name="xbot" unicode="&#59003;" d="M591.77272695-66l-4.09090869 2.04545479-6.13636347 4.09090868c-12.27272695 6.13636347-20.45454521 16.36363653-24.54545479 28.63636348-4.09090869 12.27272695-2.04545479 24.54545479 4.09090869 34.77272784 4.09090869 6.13636347 8.18181826 12.27272695 14.31818262 16.36363652h-120.68181826c14.31818174-10.22727305 20.45454521-24.54545479 20.45454521-40.90909131-2.04545479-20.45454521-12.27272695-34.77272695-30.68181826-42.95454521-2.04545479 0-4.09090869-2.04545479-4.09090869-2.04545479h-22.5c-14.31818174 6.13636347-30.68181826 14.31818174-36.81818262 34.77272695-6.13636347 20.45454521 2.04545479 36.81818174 20.4545461 53.18181826h-20.4545461c-14.31818174 0-28.63636347 0-40.90909043 4.09090958C287 36.27272694999999 252.22727305 85.36363653000001 256.31818174 138.54545479c6.13636347 65.45454521 14.31818174 132.95454521 22.5 202.5 6.13636347 51.13636347 53.18181826 92.04545479 106.36363652 92.0454539H642.90909131c57.27272695 0 102.27272695-42.95454521 108.40909043-100.22727216 6.13636347-63.40909131 14.31818174-124.77272695 20.45454521-188.18181827 4.09090869-30.68181826-6.13636347-61.36363652-24.5454539-83.86363652-18.40909131-22.5-47.04545479-36.81818174-77.72727305-38.86363653h-40.90909131l2.04545478-2.0454539c6.13636347-6.13636347 12.27272695-12.27272695 16.36363653-20.4545461 6.13636347-10.22727305 6.13636347-22.5 2.04545479-32.72727216-4.09090869-12.27272695-12.27272695-22.5-24.54545479-28.63636436l-14.31818174-4.09090869h-18.40909131z m8.18181826 139.09090869h57.27272784c20.45454521 0 36.81818174 6.13636347 47.0454539 20.4545461 10.22727305 12.27272695 16.36363653 28.63636347 14.31818174 47.0454539-6.13636347 63.40909131-14.31818174 124.77272695-20.45454521 188.18181826-4.09090869 30.68181826-26.59090869 53.18181826-57.27272695 53.18181826H385.18181826c-28.63636347 0-53.18181826-20.45454521-57.27272695-49.09090868-8.18181826-65.45454521-14.31818174-130.90909131-20.4545461-196.36363653 0-6.13636347 0-12.27272695 2.04545479-18.40909131 6.13636347-26.59090869 28.63636347-42.95454521 61.36363652-42.95454521h143.18181827l85.90909042-2.04545479zM346.31818174 459.68181826c-16.36363653 0-20.45454521 4.09090869-20.45454522 20.45454522v40.90909131V815.59090869c0 4.09090869 2.04545479 8.18181826 4.09090869 12.27272784 0 2.04545479 2.04545479 4.09090869 2.04545479 4.09090868V834h360v-2.04545479c0-2.04545479 2.04545479-4.09090869 2.04545479-4.09090868 2.04545479-4.09090869 4.09090869-8.18181826 4.09090868-12.27272784v-335.45454521c0-16.36363653-4.09090869-20.45454521-20.45454521-20.45454522H346.31818174z m302.72727305 51.13636348V780.81818174H377v-272.04545479h272.04545479zM133.59090869 142.63636348c0 6.13636347 2.04545479 12.27272695 2.04545479 18.40909131 2.04545479 14.31818174 4.09090869 28.63636347 6.13636347 40.90909042 8.18181826 47.04545479 24.54545479 81.81818174 49.09090958 112.5 18.40909131 20.45454521 38.86363653 36.81818174 65.45454521 45l10.22727305 4.09090958-4.09090958-12.27272784c0-2.04545479-2.04545479-4.09090869-2.0454539-6.13636347-38.86363653-79.77272695-75.68181826-159.54545479-112.5-239.31818174-2.04545479-2.04545479-4.09090869-4.09090869-6.13636436-8.18181827l-2.0454539-2.04545478-8.18181826-12.27272695v59.31818174zM882.22727305 566.04545479l8.18181826-2.04545479c2.04545479-57.27272695 0-132.95454521-42.9545461-198.40909131-16.36363653-26.59090869-38.86363653-45-67.5-57.27272695-2.04545479 0-4.09090869-2.04545479-8.18181826-2.04545479l-14.31818174-6.13636347 124.77272784 265.90909131zM536.54545479 711.27272695H614.27272695v-75.68181826h-77.72727216zM413.81818174 711.27272695h75.68181826v-75.68181826h-75.68181826z"  horiz-adv-x="1024" />
      
      <glyph glyph-name="human" unicode="&#59349;" d="M800 544C800 701.866667 672 832 512 832S224 701.866667 224 544c0-117.333333 70.4-219.733333 172.8-264.533333-130.133333-42.666667-236.8-153.6-270.933333-296.533334-2.133333-10.666667 4.266667-23.466667 14.933333-25.6h4.266667c10.666667 0 19.2 6.4 21.333333 17.066667C204.8 136.53333299999997 349.866667 256 509.866667 256h2.133333c160 0 288 130.133333 288 288z m-533.333333 0C266.666667 678.4 377.6 789.333333 512 789.333333s245.333333-110.933333 245.333333-245.333333S646.4 298.66666699999996 512 298.66666699999996s-245.333333 110.933333-245.333333 245.333333zM893.866667-17.066667000000052c-23.466667 96-78.933333 179.2-157.866667 234.666667l-21.333333 14.933333c-10.666667 6.4-23.466667 4.266667-29.866667-6.4-6.4-10.666667-4.266667-23.466667 6.4-29.866666l21.333333-14.933334c70.4-49.066667 121.6-123.733333 140.8-211.2 2.133333-10.666667 10.666667-17.066667 21.333334-17.066666h4.266666c10.666667 6.4 17.066667 17.066667 14.933334 29.866666z"  horiz-adv-x="1024" />
      
      <glyph glyph-name="sphere" unicode="&#59174;" d="M917 458.99999971c-2.99999971 0-9 2.99999971-11.99999971 6.00000029-128.99999971 155.99999971-299.99999971 180-420.00000029 173.99999971-171-11.99999971-321.00000029-90-366.00000029-155.99999971-2.99999971-6.00000029-15.00000029-9-20.99999971-6.00000029-6.00000029 2.99999971-9 15.00000029-6.00000029 21.00000058 51.00000029 74.99999971 207 159.00000029 390.00000058 167.99999942 126 9 308.99999971-18 446.99999942-182.99999971 6.00000029-6.00000029 2.99999971-15.00000029-2.99999971-20.99999971-2.99999971-2.99999971-6.00000029-2.99999971-9-3.00000058zM167.00000029 143.99999971c-9 0-15.00000029 6.00000029-15.00000029 15.00000029 0 45 56.99999971 108 128.99999971 189 83.99999971 92.99999971 186.00000029 209.99999971 186.00000029 290.99999971 0 47.99999971-11.99999971 81-36 99-29.99999971 24.00000029-69.00000029 20.99999971-69.00000029 21.00000058-9 0-15.00000029 2.99999971-18 11.99999971 0 9 2.99999971 15.00000029 12.00000058 18 2.99999971 0 51.00000029 6.00000029 92.99999971-27 29.99999971-27 45-65.99999971 45-123.00000029 0-92.99999971-101.99999971-207-191.99999971-308.99999971-60.00000029-69.00000029-123.00000029-137.99999971-123.00000029-171 2.99999971-9-2.99999971-15.00000029-11.99999971-15.00000029zM437.00000029-36.00000029c-2.99999971 0-6.00000029 0-6.00000029 3.00000058-6.00000029 2.99999971-9 11.99999971-6.00000029 20.99999971 110.99999971 191.99999971 132.00000029 281.99999971 132.00000029 803.99999971 0 6.00000029 6.00000029 11.99999971 15.00000029 12.00000058s15.00000029-6.00000029 14.99999942-15.00000029c0-497.99999971-18-612-137.99999971-816.00000029-2.99999971-6.00000029-6.00000029-9-11.99999971-9zM782 53.99999971c-2.99999971 0-6.00000029 0-9 3.00000058-6.00000029 2.99999971-9 15.00000029-6.00000029 20.99999971 56.99999971 90 15.00000029 191.99999971-29.99999971 299.99999971-29.99999971 72-63 146.99999971-63 222.00000029 0 117 87.00000029 132.00000029 87.00000029 132.00000029 9 0 15.00000029-6.00000029 18-12.00000058 0-9-6.00000029-15.00000029-12.00000058-18-2.99999971 0-63-9-63-101.99999971 0-69.00000029 29.99999971-141.00000029 60.00000029-209.99999971 45-110.99999971 92.99999971-222.00000029 27-327.00000058 0-6.00000029-2.99999971-9-9-9zM512-50.99999971C271.99999971-50.99999971 77.00000029 143.99999971 77.00000029 384S271.99999971 818.99999971 512 818.99999971 946.99999971 624.00000029 946.99999971 384 752.00000029-50.99999971 512-50.99999971z m0 839.99999971C289.99999971 789 107 606.00000029 107 384S289.99999971-21 512-21 917 161.99999971 917 384 734.00000029 789 512 789z"  horiz-adv-x="1024" />
      
      <glyph glyph-name="plane" unicode="&#60056;" d="M885.333333-42.66666699999996H138.666667a53.393333 53.393333 0 0 0-53.333334 53.333334V757.333333a53.393333 53.393333 0 0 0 53.333334 53.333334h746.666666a53.393333 53.393333 0 0 0 53.333334-53.333334v-746.666666a53.393333 53.393333 0 0 0-53.333334-53.333334zM138.666667 768a10.666667 10.666667 0 0 1-10.666667-10.666667v-746.666666a10.666667 10.666667 0 0 1 10.666667-10.666667h746.666666a10.666667 10.666667 0 0 1 10.666667 10.666667V757.333333a10.666667 10.666667 0 0 1-10.666667 10.666667z"  horiz-adv-x="1024" />
      
      <glyph glyph-name="text" unicode="&#58936;" d="M881.140625 594.9375a52.734375 52.734375 0 0 0-52.734375 52.734375V700.40625H564.734375v-632.8125h105.46875a52.734375 52.734375 0 0 0 0-105.46875H353.796875a52.734375 52.734375 0 0 0 0 105.46875h105.46875V700.40625H195.59375v-52.734375a52.734375 52.734375 0 0 0-105.46875 0V753.140625a52.734375 52.734375 0 0 0 52.734375 52.734375h738.28125a52.734375 52.734375 0 0 0 52.734375-52.734375v-105.46875a52.734375 52.734375 0 0 0-52.734375-52.734375z"  horiz-adv-x="1024" />
      
      <glyph glyph-name="box" unicode="&#59570;" d="M907.06835938 686.60742188L541.53125 823.01367188c-9.4921875 3.515625-19.51171875 5.2734375-29.44335938 5.27343749-10.01953125 0-20.0390625-1.7578125-29.61914062-5.36132812l-365.71289063-137.109375C83.796875 673.42382813 62 641.95898438 62 606.80273438v-380.65429688c0-31.11328125 17.05078125-59.67773438 44.47265625-74.35546875l367.03125-197.13867188c12.48046875-6.6796875 26.19140625-10.01953125 39.90234375-10.01953124 12.91992188 0 25.83984375 2.98828125 37.70507813 8.87695312l364.21874999 182.109375c28.56445313 14.32617188 46.66992188 43.50585938 46.66992188 75.49804688v396.38671874c0 35.24414063-21.88476563 66.796875-54.93164062 79.10156251zM502.15625 770.27929688c3.1640625 1.14257813 6.50390625 1.7578125 9.84375 1.75781249 3.33984375 0 6.6796875-0.61523438 9.84375-1.7578125l321.328125-119.8828125c9.22851563-3.42773438 9.140625-16.5234375-0.17578125-19.77539062l-302.78320313-108.10546875a83.97949219 83.97949219 0 0 0-56.77734374 0L181.79492187 630.26953125c-9.22851563 3.33984375-9.31640625 16.34765625-0.17578124 19.77539063L502.15625 770.27929688zM133.10351562 201.36328125C123.96289062 206.28515625 118.25 215.77734375 118.25 226.1484375V563.296875c0 14.58984375 14.4140625 24.78515625 28.21289063 19.86328125l309.46289062-110.47851563c16.78710938-5.9765625 28.03710938-21.88476563 28.03710938-39.72656249V48.2578125c0-15.90820313-17.05078125-26.10351563-31.11328126-18.54492188L133.10351562 201.36328125zM905.75 211.11914062000005c0-10.72265625-5.9765625-20.390625-15.55664063-25.13671874L570.62304688 26.197265620000053c-14.0625-7.03125-30.49804688 3.1640625-30.49804688 18.89648438V432.8671875c0 17.84179688 11.25 33.75 28.03710938 39.7265625L877.625 583.07226563c13.7109375 4.921875 28.21289063-5.2734375 28.21289063-19.86328126v-352.08984374z"  horiz-adv-x="1024" />
      
      <glyph glyph-name="unit" unicode="&#61398;" d="M907.06835938 686.60742188L541.53125 823.01367188c-9.4921875 3.515625-19.51171875 5.2734375-29.44335938 5.27343749-10.01953125 0-20.0390625-1.7578125-29.61914062-5.36132812l-365.71289063-137.109375C83.796875 673.42382813 62 641.95898438 62 606.80273438v-380.65429688c0-31.11328125 17.05078125-59.67773438 44.47265625-74.35546875l367.03125-197.13867188c12.48046875-6.6796875 26.19140625-10.01953125 39.90234375-10.01953124 12.91992188 0 25.83984375 2.98828125 37.70507813 8.87695312l364.21874999 182.109375c28.56445313 14.32617188 46.66992188 43.50585938 46.66992188 75.49804688v396.38671874c0 35.24414063-21.88476563 66.796875-54.93164062 79.10156251zM502.15625 770.27929688c3.1640625 1.14257813 6.50390625 1.7578125 9.84375 1.75781249 3.33984375 0 6.6796875-0.61523438 9.84375-1.7578125l321.328125-119.8828125c9.22851563-3.42773438 9.140625-16.5234375-0.17578125-19.77539062l-302.78320313-108.10546875a83.97949219 83.97949219 0 0 0-56.77734374 0L181.79492187 630.26953125c-9.22851563 3.33984375-9.31640625 16.34765625-0.17578124 19.77539063L502.15625 770.27929688zM133.10351562 201.36328125C123.96289062 206.28515625 118.25 215.77734375 118.25 226.1484375V563.296875c0 14.58984375 14.4140625 24.78515625 28.21289063 19.86328125l309.46289062-110.47851563c16.78710938-5.9765625 28.03710938-21.88476563 28.03710938-39.72656249V48.2578125c0-15.90820313-17.05078125-26.10351563-31.11328126-18.54492188L133.10351562 201.36328125zM905.75 211.11914062000005c0-10.72265625-5.9765625-20.390625-15.55664063-25.13671874L570.62304688 26.197265620000053c-14.0625-7.03125-30.49804688 3.1640625-30.49804688 18.89648438V432.8671875c0 17.84179688 11.25 33.75 28.03710938 39.7265625L877.625 583.07226563c13.7109375 4.921875 28.21289063-5.2734375 28.21289063-19.86328126v-352.08984374z"  horiz-adv-x="1024" />
      
      <glyph glyph-name="text3d" unicode="&#61403;" d="M881.140625 594.9375a52.734375 52.734375 0 0 0-52.734375 52.734375V700.40625H564.734375v-632.8125h105.46875a52.734375 52.734375 0 0 0 0-105.46875H353.796875a52.734375 52.734375 0 0 0 0 105.46875h105.46875V700.40625H195.59375v-52.734375a52.734375 52.734375 0 0 0-105.46875 0V753.140625a52.734375 52.734375 0 0 0 52.734375 52.734375h738.28125a52.734375 52.734375 0 0 0 52.734375-52.734375v-105.46875a52.734375 52.734375 0 0 0-52.734375-52.734375z"  horiz-adv-x="1024" />
      
      <glyph glyph-name="cube" unicode="&#61401;" d="M907.06835938 686.60742188L541.53125 823.01367188c-9.4921875 3.515625-19.51171875 5.2734375-29.44335938 5.27343749-10.01953125 0-20.0390625-1.7578125-29.61914062-5.36132812l-365.71289063-137.109375C83.796875 673.42382813 62 641.95898438 62 606.80273438v-380.65429688c0-31.11328125 17.05078125-59.67773438 44.47265625-74.35546875l367.03125-197.13867188c12.48046875-6.6796875 26.19140625-10.01953125 39.90234375-10.01953124 12.91992188 0 25.83984375 2.98828125 37.70507813 8.87695312l364.21874999 182.109375c28.56445313 14.32617188 46.66992188 43.50585938 46.66992188 75.49804688v396.38671874c0 35.24414063-21.88476563 66.796875-54.93164062 79.10156251zM502.15625 770.27929688c3.1640625 1.14257813 6.50390625 1.7578125 9.84375 1.75781249 3.33984375 0 6.6796875-0.61523438 9.84375-1.7578125l321.328125-119.8828125c9.22851563-3.42773438 9.140625-16.5234375-0.17578125-19.77539062l-302.78320313-108.10546875a83.97949219 83.97949219 0 0 0-56.77734374 0L181.79492187 630.26953125c-9.22851563 3.33984375-9.31640625 16.34765625-0.17578124 19.77539063L502.15625 770.27929688zM133.10351562 201.36328125C123.96289062 206.28515625 118.25 215.77734375 118.25 226.1484375V563.296875c0 14.58984375 14.4140625 24.78515625 28.21289063 19.86328125l309.46289062-110.47851563c16.78710938-5.9765625 28.03710938-21.88476563 28.03710938-39.72656249V48.2578125c0-15.90820313-17.05078125-26.10351563-31.11328126-18.54492188L133.10351562 201.36328125zM905.75 211.11914062000005c0-10.72265625-5.9765625-20.390625-15.55664063-25.13671874L570.62304688 26.197265620000053c-14.0625-7.03125-30.49804688 3.1640625-30.49804688 18.89648438V432.8671875c0 17.84179688 11.25 33.75 28.03710938 39.7265625L877.625 583.07226563c13.7109375 4.921875 28.21289063-5.2734375 28.21289063-19.86328126v-352.08984374z"  horiz-adv-x="1024" />
      
      <glyph glyph-name="layer" unicode="&#58991;" d="M512.43945313-8.51953125c-6.06445313 0-12.12890625 1.58203125-17.57812501 4.74609375L136.70703125 206.28515625c-10.63476563 6.24023438-17.13867188 17.66601563-17.13867188 29.97070313s6.50390625 23.73046875 17.13867188 29.97070312l76.37695313 44.91210938L136.97070312 355.875c-10.63476563 6.24023438-17.13867188 17.66601563-17.13867187 29.97070313s6.50390625 23.73046875 17.13867188 29.97070312l73.38867187 43.15429688-73.125 42.890625C126.51171875 508.18945313 120.0078125 519.61523438 120.0078125 531.91992188c0 12.3046875 6.50390625 23.73046875 17.13867188 29.97070312L495.828125 773.00390625c10.8984375 6.41601563 24.34570313 6.41601563 35.24414063 0l358.15429687-210.05859375c10.63476563-6.24023438 17.13867188-17.66601563 17.13867188-29.97070313s-6.50390625-23.73046875-17.13867188-29.97070312l-73.38867188-43.15429688 73.12500001-42.890625c10.63476563-6.24023438 17.13867188-17.66601563 17.13867187-29.97070312s-6.50390625-23.73046875-17.13867187-29.97070313L812.5859375 312.10546875l76.11328125-44.6484375c10.63476563-6.24023438 17.13867188-17.66601563 17.13867188-29.97070313s-6.50390625-23.73046875-17.13867188-29.97070312l-358.59375-211.2890625c-5.44921875-3.1640625-11.6015625-4.74609375-17.66601563-4.74609375zM223.015625 236.34375l289.42382813-169.8046875 290.12695312 170.77148438-58.44726563 34.27734374L530.28125 145.81640625a34.67285156 34.67285156 0 0 0-35.24414063 0L281.7265625 270.97265625 223.015625 236.34375z m76.90429688 104.58984375l212.69531249-124.8046875 290.12695313 170.77148438-55.546875 32.60742187-216.65039063-127.6171875a34.67285156 34.67285156 0 0 0-35.24414062 0L279.00195312 418.71679688l-55.81054687-32.78320313 75.49804688-44.296875c0.43945313-0.26367188 0.79101563-0.52734375 1.23046874-0.703125z m-2.81250001 147.83203125l215.68359376-126.5625 216.12304687 127.17773438c0.3515625 0.26367188 0.703125 0.43945313 1.0546875 0.61523437l72.86132813 42.890625-289.33593751 169.8046875-290.12695312-170.68359375 72.59765625-42.62695313c0.43945313-0.17578125 0.79101563-0.43945313 1.14257813-0.61523437z"  horiz-adv-x="1024" />
      
      <glyph glyph-name="material" unicode="&#61399;" d="M512.43945313-8.51953125c-6.06445313 0-12.12890625 1.58203125-17.57812501 4.74609375L136.70703125 206.28515625c-10.63476563 6.24023438-17.13867188 17.66601563-17.13867188 29.97070313s6.50390625 23.73046875 17.13867188 29.97070312l76.37695313 44.91210938L136.97070312 355.875c-10.63476563 6.24023438-17.13867188 17.66601563-17.13867187 29.97070313s6.50390625 23.73046875 17.13867188 29.97070312l73.38867187 43.15429688-73.125 42.890625C126.51171875 508.18945313 120.0078125 519.61523438 120.0078125 531.91992188c0 12.3046875 6.50390625 23.73046875 17.13867188 29.97070312L495.828125 773.00390625c10.8984375 6.41601563 24.34570313 6.41601563 35.24414063 0l358.15429687-210.05859375c10.63476563-6.24023438 17.13867188-17.66601563 17.13867188-29.97070313s-6.50390625-23.73046875-17.13867188-29.97070312l-73.38867188-43.15429688 73.12500001-42.890625c10.63476563-6.24023438 17.13867188-17.66601563 17.13867187-29.97070312s-6.50390625-23.73046875-17.13867187-29.97070313L812.5859375 312.10546875l76.11328125-44.6484375c10.63476563-6.24023438 17.13867188-17.66601563 17.13867188-29.97070313s-6.50390625-23.73046875-17.13867188-29.97070312l-358.59375-211.2890625c-5.44921875-3.1640625-11.6015625-4.74609375-17.66601563-4.74609375zM223.015625 236.34375l289.42382813-169.8046875 290.12695312 170.77148438-58.44726563 34.27734374L530.28125 145.81640625a34.67285156 34.67285156 0 0 0-35.24414063 0L281.7265625 270.97265625 223.015625 236.34375z m76.90429688 104.58984375l212.69531249-124.8046875 290.12695313 170.77148438-55.546875 32.60742187-216.65039063-127.6171875a34.67285156 34.67285156 0 0 0-35.24414062 0L279.00195312 418.71679688l-55.81054687-32.78320313 75.49804688-44.296875c0.43945313-0.26367188 0.79101563-0.52734375 1.23046874-0.703125z m-2.81250001 147.83203125l215.68359376-126.5625 216.12304687 127.17773438c0.3515625 0.26367188 0.703125 0.43945313 1.0546875 0.61523437l72.86132813 42.890625-289.33593751 169.8046875-290.12695312-170.68359375 72.59765625-42.62695313c0.43945313-0.17578125 0.79101563-0.43945313 1.14257813-0.61523437z"  horiz-adv-x="1024" />
      
      <glyph glyph-name="wave" unicode="&#59111;" d="M30.061714 300.79999999999995h122.313143c11.264 0 21.705143 6.692571 24.630857 18.797714l12.105143 53.851429 58.861714-272.585143c5.412571-25.051429 46.336-25.051429 50.102858 0.402286l50.907428 334.811428 59.702857-516.388571c3.748571-30.902857 48-30.482286 50.505143 0l55.113143 615.734857 54.674286-615.314286c2.925714-31.323429 46.756571-31.323429 50.523428 0l59.684572 515.949715 51.346285-335.195429c3.766857-25.472 44.251429-25.472 50.102858 0l58.020571 269.238857 12.525714-50.505143c3.748571-13.769143 13.348571-18.779429 24.630857-18.779428h118.546286c16.713143 0 29.641143 12.928 29.641143 29.220571 0 16.274286-12.928 29.622857-29.622857 29.622857H894.171429l-33.389715 129.426286c-7.497143 27.977143-43.830857 27.977143-49.682285 0l-51.748572-243.803429-58.88 384.475429c-4.571429 30.482286-46.738286 29.641143-50.505143-0.420571L597.394286 173.07428600000003l-57.6 651.227428c-2.523429 31.305143-48.438857 31.305143-51.364572 0l-57.6-651.227428-52.608 456.265143c-3.328 30.902857-45.494857 30.902857-50.505143 0.420571l-58.861714-384.475429-51.346286 243.803429c-5.851429 25.874286-42.989714 25.874286-50.102857 0L134.016 359.67999999999995H30.061714C13.348571 359.67999999999995 0 346.33142899999996 0 330.038857c0-16.274286 13.348571-29.220571 30.061714-29.220571z"  horiz-adv-x="1024" />
      
      <glyph glyph-name="brush" unicode="&#58943;" d="M769.6 699.2l-32-32-11.2 11.2a33.6 33.6 0 0 1-46.4 0l-81.6-81.6a32 32 0 0 1-8-32l-17.6-17.6-9.6 9.6L464 656l-32 32h-1.6l-6.4 4.8h-1.6l-4.8 3.2a54.4 54.4 0 0 1-62.4-9.6l-6.4-6.4-92.8-92.8-78.4-75.2a54.4 54.4 0 0 1-16-36.8 48 48 0 0 1 12.8-38.4l128-128 14.4-14.4-16-16a40 40 0 0 1-8-46.4A33.6 33.6 0 0 0 288 192l-9.6-9.6a78.4 78.4 0 0 1-9.6-155.2h8a78.4 78.4 0 0 1 78.4 80l9.6 9.6a33.6 33.6 0 0 0 38.4 6.4 40 40 0 0 1 46.4 8l89.6 89.6a72 72 0 0 0 28.8-20.8l124.8-150.4a83.2 83.2 0 0 1 59.2-24 105.6 105.6 0 0 1 102.4 96 83.2 83.2 0 0 1-24 65.6l-153.6 128a72 72 0 0 0-20.8 24l78.4 78.4h9.6a32 32 0 0 1 24 9.6l80 81.6a33.6 33.6 0 0 1 0 46.4l-11.2 11.2 32 32a70.4 70.4 0 1 1-99.2 99.2z m-176-176l16 16 100.8-100.8-60.8-60.8a72 72 0 0 0 1.6 12.8l8 35.2a51.2 51.2 0 0 1-12.8 48l-51.2 51.2zM326.4 329.6l-28.8 28.8a16 16 0 0 1 12.8 11.2l25.6 83.2 64-4.8a16 16 0 0 1 16 17.6l-4.8 43.2h33.6a16 16 0 0 1 16 16l4.8 81.6 73.6-73.6 33.6-33.6-203.2-212.8z m99.2-176a8 8 0 0 0-9.6-1.6 65.6 65.6 0 0 1-75.2-12.8l-14.4-14.4a16 16 0 0 1-4.8-12.8 46.4 46.4 0 1 0-84.8 19.2 46.4 46.4 0 0 0 44.8 20.8 16 16 0 0 1 12.8 4.8l14.4 14.4a65.6 65.6 0 0 1 12.8 75.2 8 8 0 0 0 1.6 9.6l16 16 12.8-12.8a16 16 0 0 1 4.8-8l6.4-3.2 25.6-25.6a51.2 51.2 0 0 1 35.2-14.4l16 3.2 44.8 14.4 9.6 3.2z m380.8 11.2a51.2 51.2 0 0 0 14.4-40A70.4 70.4 0 0 0 800 80c-25.6-25.6-64-28.8-84.8-8l-124.8 148.8a104 104 0 0 1-41.6 30.4h-1.6a16 16 0 0 1-17.6 3.2 104 104 0 0 1-52.8-3.2l-44.8-14.4a19.2 19.2 0 0 0-19.2 4.8l-20.8 20.8 203.2 212.8 25.6-25.6a19.2 19.2 0 0 0 4.8-17.6l-8-35.2a104 104 0 0 1 35.2-104zM760 80a40 40 0 0 1 28.8 68.8 41.6 41.6 0 0 1-56 0 40 40 0 0 1 27.2-68.8z m-6.4 46.4h11.2a8 8 0 0 0 0-11.2h-11.2a8 8 0 0 0 0 11.2z"  horiz-adv-x="1024" />
      
      <glyph glyph-name="recognition" unicode="&#59803;" d="M512 384m-450 0a450 450 0 1 1 900 0 450 450 0 1 1-900 0ZM512 649.90909131a20.45454521 20.45454521 0 0 1-20.45454521-20.4545461v-490.90909042a20.45454521 20.45454521 0 0 1 40.90909042 0V629.45454521a20.45454521 20.45454521 0 0 1-20.45454521 20.4545461zM348.36363653 588.54545479a20.45454521 20.45454521 0 0 1-20.45454522-20.4545461v-368.18181738a20.45454521 20.45454521 0 0 1 40.90909043 0V568.09090869a20.45454521 20.45454521 0 0 1-20.45454522 20.4545461zM675.63636347 588.54545479a20.45454521 20.45454521 0 0 1-20.45454521-20.4545461v-368.18181738a20.45454521 20.45454521 0 0 1 40.90909043 0V568.09090869a20.45454521 20.45454521 0 0 1-20.45454521 20.4545461zM430.18181826 486.27272695a20.45454521 20.45454521 0 0 1-20.45454521-20.45454521v-163.63636348a20.45454521 20.45454521 0 0 1 40.90909043 0v163.63636348a20.45454521 20.45454521 0 0 1-20.45454522 20.45454521zM593.81818174 486.27272695a20.45454521 20.45454521 0 0 1-20.45454522-20.45454521v-163.63636348a20.45454521 20.45454521 0 0 1 40.90909043 0v163.63636348a20.45454521 20.45454521 0 0 1-20.45454521 20.45454521zM266.54545479 445.36363652a20.45454521 20.45454521 0 0 1-20.4545461-20.45454521v-81.81818262a20.45454521 20.45454521 0 0 1 40.90909131 0v81.81818262a20.45454521 20.45454521 0 0 1-20.45454521 20.45454521zM757.45454521 445.36363652a20.45454521 20.45454521 0 0 1-20.45454521-20.45454521v-81.81818262a20.45454521 20.45454521 0 0 1 40.90909131 0v81.81818262a20.45454521 20.45454521 0 0 1-20.4545461 20.45454521zM184.72727305 384m-20.4545461 0a20.45454521 20.45454521 0 1 1 40.90909131 0 20.45454521 20.45454521 0 1 1-40.90909131 0ZM839.27272695 384m-20.45454521 0a20.45454521 20.45454521 0 1 1 40.90909131 0 20.45454521 20.45454521 0 1 1-40.90909131 0Z"  horiz-adv-x="1024" />
      
      <glyph glyph-name="recorder" unicode="&#58972;" d="M431.49 268.64c22.25-17.35 50.4-27.82 80.51-27.82 59.24 0 109.31 39.6 125.35 93.6 3.6 11.79 5.56 24.55 5.56 37.31V568.0899999999999c0 1.17-0.02 2.34-0.05 3.5-0.01 0.35-0.03 0.7-0.04 1.05-0.03 0.82-0.06 1.63-0.1 2.44-0.02 0.4-0.05 0.81-0.08 1.21-0.05 0.76-0.1 1.52-0.16 2.28-0.03 0.4-0.07 0.81-0.11 1.21-0.07 0.76-0.14 1.52-0.22 2.27-0.04 0.39-0.09 0.77-0.13 1.15-0.09 0.78-0.19 1.56-0.29 2.33l-0.15 1.04c-0.12 0.83-0.24 1.65-0.38 2.47-0.05 0.29-0.09 0.57-0.14 0.85-0.15 0.91-0.32 1.82-0.49 2.73-0.03 0.18-0.07 0.36-0.1 0.54-5.09 26-17.9 49.33-35.85 67.53C580.73 684.27 548 699 512 699c-1.09 0-2.17-0.01-3.25-0.04-0.38-0.01-0.77-0.03-1.15-0.04-0.69-0.02-1.38-0.04-2.07-0.08-0.48-0.02-0.96-0.06-1.44-0.08-0.58-0.03-1.16-0.07-1.74-0.11-0.54-0.04-1.08-0.09-1.63-0.13-0.51-0.04-1.01-0.09-1.52-0.13-0.59-0.06-1.19-0.12-1.78-0.19l-1.31-0.15c-0.65-0.08-1.29-0.16-1.93-0.25l-1.11-0.15c-0.7-0.1-1.41-0.21-2.11-0.32-0.28-0.05-0.56-0.09-0.84-0.14-0.78-0.13-1.56-0.27-2.34-0.41-0.17-0.03-0.34-0.06-0.5-0.1-0.88-0.17-1.77-0.34-2.64-0.53-0.01 0-0.02 0-0.03-0.01-48.93-10.41-87.72-48.13-99.68-96.47-0.08-0.32-0.16-0.63-0.23-0.95-0.13-0.55-0.26-1.09-0.38-1.64-0.17-0.76-0.34-1.51-0.49-2.27l-0.09-0.43c-0.67-3.26-1.23-6.56-1.65-9.9-0.38-3.02-0.63-6.15-0.79-9.32-0.02-0.39-0.03-0.78-0.05-1.17-0.03-0.73-0.06-1.46-0.08-2.19-0.03-1.22-0.05-2.45-0.05-3.68V371.75c-0.03-41.91 19.61-79.22 50.37-103.11zM716.55 371.73c0 13.56-10.99 24.55-24.55 24.55s-24.55-10.99-24.55-24.55c0-85.72-69.74-155.45-155.45-155.45s-155.45 69.74-155.45 155.45c0 13.56-10.99 24.55-24.55 24.55s-24.55-10.99-24.55-24.55c0-104.48 78.74-190.9 180-203.07v-50.57H381.09c-13.56 0-24.55-10.99-24.55-24.55s10.99-24.55 24.55-24.55h261.82c13.56 0 24.55 10.99 24.55 24.55s-10.99 24.55-24.55 24.55H536.55v50.57c101.25 12.16 180 98.59 180 203.07zM773.82 459c-13.56 0-24.55-10.99-24.55-24.55v-136.36c0-13.56 10.99-24.55 24.55-24.55s24.55 10.99 24.55 24.55V434.45c-0.01 13.56-11 24.55-24.55 24.55zM855.64 527.1800000000001c-13.56 0-24.55-10.99-24.55-24.55V229.89999999999998c0-13.56 10.99-24.55 24.55-24.55s24.55 10.99 24.55 24.55V502.64c-0.01 13.55-11 24.54-24.55 24.54zM937.45 445.36c-13.56 0-24.55-10.99-24.55-24.55v-109.09c0-13.56 10.99-24.55 24.55-24.55s24.55 11 24.55 24.56V420.82c0 13.55-10.99 24.54-24.55 24.54zM86.55 459C72.99 459 62 448.01 62 434.45v-136.36c0-13.56 10.99-24.55 24.55-24.55s24.55 10.99 24.55 24.55V434.45c-0.01 13.56-11 24.55-24.55 24.55zM168.36 527.1800000000001c-13.56 0-24.55-10.99-24.55-24.55V229.89999999999998c0-13.56 10.99-24.55 24.55-24.55s24.55 10.99 24.55 24.55V502.64c0 13.55-10.99 24.54-24.55 24.54zM250.18 445.36c-13.56 0-24.55-10.99-24.55-24.55v-109.09c0-13.56 10.99-24.55 24.55-24.55s24.55 10.99 24.55 24.55v109.1c0 13.55-10.99 24.54-24.55 24.54z"  horiz-adv-x="1024" />
      
      <glyph glyph-name="timer" unicode="&#59147;" d="M512 682.666667a362.666667 362.666667 0 1 0 0-725.333334 362.666667 362.666667 0 0 0 0 725.333334z m0-128a32 32 0 0 1-31.701333-27.648l-0.298667-4.352v-192l0.298667-4.352a32 32 0 0 1 63.402666 0l0.298667 4.352v192l-0.298667 4.352A32 32 0 0 1 512 554.666667z m305.92 122.752l3.498667-2.602667 49.024-42.666667a32 32 0 0 0-38.570667-50.901333l-3.456 2.602667-49.024 42.666666a32 32 0 0 0 38.528 50.901334zM608 789.333333a32 32 0 0 0 4.352-63.701333L608 725.333333h-192a32 32 0 0 0-4.352 63.701334L416 789.333333h192z"  horiz-adv-x="1024" />
      
      <glyph glyph-name="hand" unicode="&#59000;" d="M901.358 349c-29.17 29.154-72.108 31.78-101.278 2.624l-83.374-83.328c-21.704-21.672-47.86-21.718-63.128-3.704-10.114 11.936-6.122 48.748-3.288 72.098l41.814 343.698c3.734 30.706-18.14 60.37-48.86 64.102-30.716 3.734-58.644-19.878-62.382-50.578L534.74 423.958c-2.41-6.716-7.58-7.876-8.162 1.164L510.88 776c0 30.93-25.084 56-56.028 56-30.946 0-56.03-25.07-56.03-56l-1.104-353.504c0.292-4.08-3.208-5.248-3.84-0.588L344.032 697.846c-5.5 30.438-34.646 52.406-65.096 46.906-30.454-5.496-50.678-36.374-45.182-66.806l44.386-322.91c0.046-5.744-1.882-9.026-4.616-1.662l-66.218 177.034c-10.36 29.144-42.392 46.13-71.552 35.778-29.158-10.354-44.402-44.122-34.046-73.262l116.084-379.25c0.606-2.092 1.248-4.17 1.906-6.236l0.242-0.78c0.022-0.062 0.05-0.116 0.07-0.176C252.158 7.533999999999992 345.14-64 454.854-64c70.232 0 143.182 24.756 198.714 67.344 0.002 0 0.006 0.004 0.006 0.004 59.98 36.102 252.142 242.694 252.142 242.694C934.89 275.196 930.532 319.84000000000003 901.358 349z"  horiz-adv-x="1024" />
      
      <glyph glyph-name="number" unicode="&#58949;" d="M512 834a450 450 0 1 1 450-450 450 450 0 0 1-450 450z m12.9375-675c-112.5 0-153.5625 119.25-153.5625 225s43.3125 225 153.5625 225S680.75 490.875 680.75 384s-46.6875-225-155.8125-225zM524.9375 560.625C448.4375 560.625 422.5625 471.1875 422.5625 384s25.875-177.1875 102.375-177.1875S624.5 297.375 624.5 384s-23.0625 176.625-99.5625 176.625z"  horiz-adv-x="1024" />
      
      <glyph glyph-name="reset" unicode="&#58912;" d="M744.311467 658.500267H312.695467V691.2H204.8v-108.987733h32.3584v-430.557867H204.8V42.66666699999996h107.895467v32.699733h431.616V42.66666699999996h107.895466v108.987733h-32.3584V582.212267h32.3584V691.2h-107.861333v-32.699733z m0-43.588267v-32.699733h32.392533v-430.557867h-32.392533v-32.699733H312.695467v32.699733H283.306667V582.212267h29.422933v32.699733h431.616z m-108.782934-139.946667h-214.016v-216.064h214.016v216.064z"  horiz-adv-x="1024" />
      
      <glyph glyph-name="screen" unicode="&#58945;" d="M845 781H179c-35.2 0-64-28.8-64-64v-493h794V717c0 35.2-28.8 64-64 64zM115 181c0-35.2 28.8-64 64-64h301v-65H320c-17.7 0-32-14.3-32-32s14.3-32 32-32h384c17.7 0 32 14.3 32 32s-14.3 32-32 32H544v65h301c35.2 0 64 28.8 64 64v11H115v-11z"  horiz-adv-x="1024" />
      
      <glyph glyph-name="component" unicode="&#59233;" d="M301.248 82.75199999999995L512-128l210.752 210.752L512 293.504l-210.752-210.752zM210.752 173.24800000000005L421.504 384 210.752 594.752 0 384l210.752-210.752zM301.248 685.248L512 896l210.752-210.752L512 474.496 301.248 685.248zM813.248 594.752L602.496 384l210.752-210.752L1024 384l-210.752 210.752z"  horiz-adv-x="1024" />
      
      <glyph glyph-name="variable" unicode="&#59214;" d="M838.892308 545.476923c47.261538 0 141.784615 39.384615 141.784615 165.415385s-90.584615 133.907692-120.123077 133.907692c-55.138462 0-110.276923-39.384615-159.507692-124.061538-49.230769-86.646154-104.369231-179.2-104.369231-179.2h-1.969231c-11.815385 61.046154-21.661538 110.276923-25.6 131.938461-9.846154 53.169231-70.892308 165.415385-194.953846 165.415385-126.030769 0-240.246154-72.861538-240.246154-72.861539-19.692308-13.784615-33.476923-37.415385-33.476923-64.984615 0-41.353846 33.476923-76.8 76.8-76.8 11.815385 0 23.630769 3.938462 33.476923 7.876923 0 0 94.523077 53.169231 116.184616 0 5.907692-15.753846 11.815385-33.476923 17.723077-53.169231 23.630769-82.707692 47.261538-179.2 64.984615-265.846154l-82.707692-118.153846s-92.553846 33.476923-139.815385 33.476923-141.784615-39.384615-141.784615-165.415384 90.584615-133.907692 120.123077-133.907693c55.138462 0 110.276923 39.384615 159.507692 124.061539 49.230769 86.646154 104.369231 179.2 104.369231 179.2 15.753846-78.769231 29.538462-139.815385 37.415384-167.384616 31.507692-88.615385 104.369231-141.784615 198.892308-141.784615 0 0 98.461538 0 214.646154 64.984615 27.569231 11.815385 47.261538 39.384615 47.261538 70.892308 0 41.353846-33.476923 76.8-76.8 76.8-11.815385 0-23.630769-3.938462-33.476923-7.876923 0 0-82.707692-47.261538-110.276923-9.846154-19.692308 39.384615-37.415385 90.584615-51.2 153.6-11.815385 55.138462-25.6 122.092308-39.384615 187.076923l84.676923 122.092308c-1.969231-1.969231 90.584615-35.446154 137.846154-35.446154z"  horiz-adv-x="1024" />
      
      <glyph glyph-name="minimize" unicode="&#59063;" d="M312.17664 502.90688a20.48 20.48 0 1 1 0 40.96h-77.2096a20.48 20.48 0 0 1-20.48-20.48v-449.55648a20.48 20.48 0 0 1 20.48-20.48h449.55648a20.48 20.48 0 0 1 20.48 20.48V150.93759999999997a20.48 20.48 0 1 1-40.96 0v-56.6272h-408.576V502.90688h56.70912zM849.38752 708.68992H399.81056a20.48 20.48 0 0 1-20.48-20.48v-449.55648a20.48 20.48 0 0 1 20.48-20.48h449.55648a20.48 20.48 0 0 1 20.48 20.48V688.20992a20.43904 20.43904 0 0 1-20.45952 20.48z m-20.48-449.55648H420.29056V667.72992h408.59648v-408.59648z"  horiz-adv-x="1024" />
      
      <glyph glyph-name="maximize" unicode="&#59072;" d="M810.666667-42.666667h-128c-25.6 0-42.666667 17.066667-42.666667 42.666667s17.066667 42.666667 42.666667 42.666667h128c25.6 0 42.666667 17.066667 42.666666 42.666666v128c0 25.6 17.066667 42.666667 42.666667 42.666667s42.666667-17.066667 42.666667-42.666667v-128c0-72.533333-55.466667-128-128-128zM341.333333-42.666667H213.333333c-72.533333 0-128 55.466667-128 128v128c0 25.6 17.066667 42.666667 42.666667 42.666667s42.666667-17.066667 42.666667-42.666667v-128c0-25.6 17.066667-42.666667 42.666666-42.666666h128c25.6 0 42.666667-17.066667 42.666667-42.666667s-17.066667-42.666667-42.666667-42.666667zM896 512c-25.6 0-42.666667 17.066667-42.666667 42.666667V682.666667c0 25.6-17.066667 42.666667-42.666666 42.666666h-128c-25.6 0-42.666667 17.066667-42.666667 42.666667s17.066667 42.666667 42.666667 42.666667h128c72.533333 0 128-55.466667 128-128v-128c0-25.6-17.066667-42.666667-42.666667-42.666667zM128 512c-25.6 0-42.666667 17.066667-42.666667 42.666667V682.666667c0 72.533333 55.466667 128 128 128h128c25.6 0 42.666667-17.066667 42.666667-42.666667s-17.066667-42.666667-42.666667-42.666667H213.333333c-25.6 0-42.666667-17.066667-42.666666-42.666666v-128c0-25.6-17.066667-42.666667-42.666667-42.666667z"  horiz-adv-x="1024" />
      
      <glyph glyph-name="group" unicode="&#58946;" d="M374.29 687.23l0-259.901-259.901 0 0 259.901 259.901 0M419.316 732.256l-349.952 0 0-349.952 349.952 0 0 349.952zM374.29 242.113l0-259.901-259.901 0 0 259.901 259.901 0M419.316 287.138l-349.952 0 0-349.952 349.952 0 0 349.952zM842.428 242.113l0-259.901-259.901 0 0 259.901 259.901 0M887.454 287.138l-349.952 0 0-349.952 349.952 0 0 349.952zM712.478 748.196l183.778-183.778-183.778-183.779-183.78 183.779 183.78 183.778M712.478 811.871l-247.454-247.453 247.454-247.455 247.454 247.455-247.454 247.453z"  horiz-adv-x="1024" />
      
      <glyph glyph-name="bigint" unicode="&#59359;" d="M913.642 531.246C873.564 570.424 820.124 592 763.17 592c-56.954 0-110.39-21.576-150.42-60.708l-78.212-75.77 50.12-49.378 77.686 75.538c26.916 26.19 62.642 40.614 100.598 40.614 37.958 0 73.682-14.424 100.564-40.582 26.726-26.154 41.424-60.936 41.386-97.94-0.038-36.886-14.726-71.5-41.354-97.456-26.916-26.19-62.64-40.614-100.598-40.614-37.956 0-73.682 14.424-100.582 40.598L411.292 531.2819999999999C370.982 570.4359999999999 317.556 592 260.854 592c-56.954 0-110.39-21.576-150.46-60.746C70.206 492.028 48.046 439.736 48 384.014c-0.048-55.644 22.11-107.946 62.384-147.26C150.464 197.57600000000002 203.902 176 260.854 176c56.95 0 110.388 21.576 150.446 60.726l77.988 75.818-50.176 49.004-77.658-75.23c-26.916-26.19-62.642-40.614-100.6-40.614-37.954 0-73.678 14.424-100.56 40.582-26.728 26.154-41.428 60.938-41.388 97.942 0.038 36.886 14.726 71.498 41.356 97.454 26.916 26.19 62.64 40.614 100.594 40.614 37.958 0 73.684-14.424 100.584-40.598l251.064-244.978C652.812 197.56399999999996 706.238 176 762.94 176c56.952 0 110.388 21.576 150.426 60.71 40.358 39.146 62.602 91.454 62.634 147.28C976.034 439.666 953.884 491.964 913.642 531.246z"  horiz-adv-x="1024" />
      
      <glyph glyph-name="translate" unicode="&#58952;" d="M966.392 447.259L851.745 646.311a27.039 27.039 0 0 1-23.431 13.544h-42.126l-78.386 135.769a27.04 27.04 0 0 1-23.417 13.52H454.539a27.039 27.039 0 0 1-23.4-13.49l-20.99-36.249-156.729-0.025a27.04 27.04 0 0 1-23.413-13.52L115.084 546.809a27.041 27.041 0 0 1 0-27.04l20.925-36.243-78.386-135.769a27.041 27.041 0 0 1 0-27.04l114.923-199.052a27.04 27.04 0 0 1 23.417-13.52h41.85l78.386-135.769a27.04 27.04 0 0 1 23.417-13.52h229.845a27.04 27.04 0 0 1 23.417 13.52l20.925 36.243h156.773a27.04 27.04 0 0 1 23.417 13.52l114.923 199.052a27.041 27.041 0 0 1 0 27.04l-20.925 36.243 78.386 135.769a27.04 27.04 0 0 1 0.015 27.016zM767.96 338.71799999999996l-219.424 0.026 82.291 142.529a4.517 4.517 0 0 1 0 4.507L462.345 777.597h219.439l84.889-147.035 0.003-0.004 84.888-147.032-83.604-144.808z m62.68 90.538h104.516l-78.388-135.767L804.51 384l26.13 45.256z m-208.921 54.27L540.73 343.25199999999995 517.204 384l27.429 47.509c0.031 0.054 0.042 0.115 0.07 0.17 0.125 0.24 0.228 0.49 0.31 0.753 0.028 0.091 0.062 0.179 0.084 0.271 0.082 0.341 0.139 0.693 0.139 1.059a4.46 4.46 0 0 1-0.139 1.059c-0.022 0.092-0.056 0.181-0.084 0.272a4.565 4.565 0 0 1-0.31 0.753c-0.029 0.055-0.039 0.116-0.07 0.17L429.711 635.068a4.509 4.509 0 0 1-3.904 2.254h-49.653l78.384 135.768 167.181-289.564zM365.744 637.322h-52.255l-52.259 90.514 156.787 0.024-52.273-90.538z m-62.664 0h-49.655a4.508 4.508 0 0 1-3.904-2.254l-82.29-142.528-23.526 40.748 109.719 190.038 49.656-86.004z m-131.946-156.05l84.891 147.036h54.856l0.009-0.001 0.009 0.001h112.307l109.718-190.039H368.347a4.508 4.508 0 0 1-3.904-2.254L195.961 144.19799999999998 86.244 334.23699999999997l84.89 147.035z m199.814-52.016h161.975l-23.527-40.749h-54.859c-0.037 0-0.073-0.014-0.11-0.015a4.484 4.484 0 0 1-2.044-0.548c-0.08-0.044-0.154-0.093-0.231-0.142a4.454 4.454 0 0 1-0.652-0.499c-0.068-0.063-0.139-0.122-0.203-0.189a4.439 4.439 0 0 1-0.662-0.86L335.712 187.20100000000002a4.515 4.515 0 0 1 0-4.506l24.828-43.003H203.769l167.179 289.564z m-5.205-298.578l26.129-45.257-52.258-90.511-78.384 135.768h104.513z m31.334-54.272l24.826-43.001a4.508 4.508 0 0 1 3.904-2.253h164.579l-23.524-40.749h-219.44l49.655 86.003z m31.331-36.241L344.82 184.94799999999998l109.719 190.038 82.288-142.528a4.508 4.508 0 0 1 3.904-2.253h336.963l-109.718-190.04H428.408z m114.923 199.053l-80.987 140.276h47.055l27.427-47.51c0.044-0.076 0.103-0.137 0.152-0.21 0.087-0.134 0.177-0.264 0.279-0.389 0.095-0.115 0.197-0.221 0.301-0.326 0.1-0.1 0.2-0.197 0.311-0.288 0.13-0.107 0.266-0.201 0.406-0.292 0.069-0.046 0.128-0.102 0.2-0.144 0.034-0.02 0.073-0.025 0.107-0.044 0.314-0.17 0.64-0.315 0.984-0.406 0.035-0.01 0.071-0.009 0.107-0.018 0.302-0.072 0.61-0.11 0.92-0.119 0.044-0.001 0.088-0.017 0.132-0.017 0.051 0 0.099 0.018 0.15 0.019 0.062-0.002 0.119-0.018 0.18-0.018l229.505-0.027a4.509 4.509 0 0 1 3.904 2.253l24.841 43.027 53.556-92.759 0.001-0.003 24.83-43.005H543.331z m292.512 199.051l24.828 43.003a4.517 4.517 0 0 1 0 4.507l-82.289 142.529h47.325l109.457-190.039h-99.321z"  horiz-adv-x="1024" />
      
      <glyph glyph-name="math" unicode="&#58883;" d="M440.477398 410.30126953l-205.26855469 260.07275392h208.1953125s73.28759766 5.85351563 99.68115235-32.14160158 35.18701172-96.43798828 35.18701173-96.43798828h26.39355467l-11.72021483 178.26855469H91.54722222v-26.30126953l258.01611328-315.60205078L91.54722222 77.16503906000003v-29.22802734h513.11865234l32.26025391 198.72949219-26.39355469 5.84033203s-8.79345703-43.83544922-43.98046875-84.74414063c-35.18701172-40.921875-173.00830078-35.06835938-173.00830078-35.06835937H208.82847222L440.477398 410.30126953z m337.90869141-27.10546875l-8.56933593 22.58349611c-6.26220703 15.95214844-9.66357422 24.58740234-10.21728517 25.87939452l-13.24951172 29.45214843c-9.39990234 21.09375001-18.41748047 31.66699219-27.07910156 31.66699219-13.09130859 0-23.40087891-12.22119141-30.94189453-36.62402344-5.53710938 2.01708985-8.30566406 4.95703125-8.30566406 8.81982422 0 11.36425781 6.63134766 24.40283203 19.84130859 39.07617188 13.26269531 14.68652345 25.15429689 22.01660156 35.6484375 22.01660156 20.57958985 0 41.88427734-29.54443359 64.00634766-88.64648438l5.64257812-14.56787109 6.36767578 10.16455078c39.234375 62.02880859 72.28564453 93.04980469 99.16699219 93.04980469 7.00048828 0 15.20068359-2.01708985 24.60058594-6.05126954l-33.45996094-34.96289062c-4.4296875 1.27880859-7.56738281 1.92480469-9.41308594 1.92480469-20.25 0-44.42871094-23.22949219-72.43066406-69.66210937l-8.0024414-13.38134766 6.3149414-16.90136719c24.23144531-66.64306641 44.13867188-99.95800781 59.90625-99.95800781 14.44921875 0 25.45751953 10.29638672 33.05126953 30.83642578 5.15478516-3.30908203 7.72558594-6.69726563 7.72558594-10.19091797 0-9.18896484-7.35644531-20.19726563-22.09570311-33.03808593-14.73925781-12.84082031-27.421875-19.28759766-38.12695314-19.28759766-21.37060547 0-43.18945313 30.01904297-65.46972656 90.03076172l-7.73876953 20.39501953-8.00244141-14.06689453c-37.57324219-64.24365234-73.49853516-96.35888672-107.76269531-96.35888672-12.88037109 0-23.8359375 3.20361328-32.86669922 9.55810547l32.03613281 31.2055664c5.53710938-5.51074219 11.98388672-8.25292969 19.35351563-8.25292968 20.79052734 0 44.21777344 20.98828125 70.16308593 62.96484375l14.3701172 23.17675781 5.53710937 9.14941406z"  horiz-adv-x="1024" />
      
      <glyph glyph-name="logic" unicode="&#58896;" d="M831.95 33c62.99999999 0 114.29999999 51.3 114.3 114.3s-51.3 114.29999999-114.3 114.3c-54.9 0-100.8-39.15-111.6-90.9-118.35 7.65-190.8 88.2-190.8 213.3 0 90.45-44.1 153-82.35 190.35L719.9 574.35c10.8-52.2 56.7-91.35 112.05-91.35 62.99999999 0 114.29999999 51.3 114.3 114.3s-51.3 113.85-114.29999999 113.85c-55.35 0-101.25-39.6-112.05000001-91.8l-416.25 0c-10.35 52.2-56.7 91.8-112.05 91.8-62.99999999 0-114.29999999-51.3-114.3-114.3S129.05 483 192.05 483c55.35 0 101.25 39.6 112.05 91.8l71.55 1e-8c21.6-13.5 108.90000001-75.15 108.9-190.35000001 0-76.95 24.3-141.75 70.2-188.55000001 41.85-42.3 98.55-66.15 165.15-70.19999999 10.35-53.10000001 56.7-92.7 112.05-92.7z m0 633.15c38.25 0 69.3-31.05 69.3-69.3s-31.05-69.3-69.3-69.3-69.3 31.05-69.3 69.3 31.05 69.3 69.3 69.3zM192.05 528c-38.25 0-69.3 31.05-69.3 69.3s31.05 69.3 69.3 69.3 69.3-31.05 69.3-69.3-31.05-69.3-69.3-69.3z m570.6-380.7c0 38.25 31.05 69.3 69.3 69.3s69.3-31.05 69.3-69.3-31.05-69.3-69.3-69.3-69.3 31.05-69.3 69.3z"  horiz-adv-x="1024" />
      
      <glyph glyph-name="message" unicode="&#58948;" d="M889.6 192c-28.8 16-48 41.6-64 64l-9.6 12.8c-3.2 6.4-6.4 12.8-6.4 19.2v172.8c0 83.2-35.2 160-92.8 217.6-32 32-70.4 54.4-115.2 67.2C592 793.6 556.8 832 512 832s-80-38.4-89.6-89.6C300.8 704 214.4 588.8 214.4 451.2V288c0-6.4-3.2-12.8-6.4-19.2l-9.6-12.8c-16-22.4-35.2-48-64-64-19.2-12.8-32-32-32-54.4 0-35.2 28.8-64 64-64h201.6c3.2-76.8 67.2-137.6 144-137.6s140.8 60.8 144 137.6h201.6c35.2 0 64 28.8 64 64 0 22.4-12.8 41.6-32 54.4zM512 800c25.6 0 44.8-19.2 54.4-48-25.6 3.2-48 6.4-73.6 3.2-12.8 0-22.4-3.2-35.2-3.2 9.6 28.8 28.8 48 54.4 48z m0-832c-60.8 0-108.8 48-112 105.6h224c-3.2-60.8-51.2-105.6-112-105.6z m345.6 137.6H166.4c-19.2 0-32 12.8-32 32 0 12.8 6.4 22.4 16 28.8 32 19.2 57.6 48 73.6 73.6l9.6 12.8c9.6 9.6 12.8 25.6 12.8 38.4v163.2c0 144 108.8 265.6 246.4 275.2h19.2c67.2 0 131.2-25.6 182.4-70.4 54.4-51.2 83.2-118.4 83.2-195.2V288c0-12.8 3.2-25.6 12.8-38.4l9.6-12.8c16-22.4 41.6-54.4 73.6-73.6 9.6-6.4 16-16 16-28.8 0-16-16-28.8-32-28.8z"  horiz-adv-x="1024" />
      
      <glyph glyph-name="queue" unicode="&#59062;" d="M585.301 215.144c59.719 0 108.13-48.386 108.13-108.072 0-59.687-48.411-108.072-108.13-108.072h-179.45c-59.72 0-108.131 48.385-108.131 108.072 0 59.686 48.412 108.072 108.13 108.072h179.451z m165.615 159.955c0.716 16.493 14.675 29.283 31.177 28.567 78.37-3.399 140.842-68.814 151.36-148 11.265-84.804-39.42-157.479-138.745-179.376l1.457-41.696a6.9 6.9 0 0 0-11.163-5.663l-82.064 64.601a6.9 6.9 0 0 0-0.368 10.533l77.344 70.152a6.9 6.9 0 0 0 11.532-4.87l1.124-31.997c61.381 17.217 88.38 59.304 81.587 110.448-6.904 51.977-47.11 94.078-94.658 96.14l-0.715 0.04c-16.155 1.081-28.574 14.866-27.868 31.12zM585.3 481.874c59.719 0 108.13-48.385 108.13-108.072 0-59.686-48.411-108.071-108.13-108.071h-179.45c-59.72 0-108.131 48.385-108.131 108.071 0 59.687 48.412 108.072 108.13 108.072h179.451z m-315.217 178.35c0.706-16.254-11.713-30.04-27.868-31.12l-0.715-0.04c-47.547-2.062-87.754-44.163-94.658-96.14-5.816-43.788 13.138-80.937 57.234-101.523l1.02 29.111a6.9 6.9 0 0 0 11.532 4.87l77.344-70.152a6.9 6.9 0 0 0-0.368-10.533l-82.063-64.601a6.9 6.9 0 0 0-11.164 5.663l1.48 42.373c-83.116 27.714-124.612 95.116-114.312 172.66 10.519 79.186 72.991 144.6 151.361 148 16.502 0.716 30.46-12.074 31.177-28.568zM585.301 767c59.719 0 108.13-48.385 108.13-108.072 0-59.686-48.411-108.072-108.13-108.072h-179.45c-59.72 0-108.131 48.386-108.131 108.072C297.72 718.615 346.132 767 405.85 767h179.451z"  horiz-adv-x="1024" />
      
      <glyph glyph-name="start" unicode="&#58992;" d="M823.8 292.5l-501.2-336c-50.7-34-119.3-20.4-153.2 30.2-12.2 18.2-18.7 39.6-18.7 61.5v672c0 61 49.5 110.4 110.4 110.4 21.9 0 43.3-6.5 61.5-18.7l501.1-336c50.7-34 64.2-102.6 30.2-153.2-7.8-11.9-18.1-22.2-30.1-30.2z m0 0"  horiz-adv-x="1024" />
      
      <glyph glyph-name="stop" unicode="&#59243;" d="M313.5-10.299999999999955c-16 0-35.7 11.4-43.7 25.2L71.4 358.6c-8 13.9-8 36.6 0 50.5l198.4 343.6c8 13.9 27.7 25.2 43.7 25.2h396.8c16 0 35.7-11.4 43.7-25.2l198.4-343.6c8-13.9 8-36.6 0-50.5L754 15c-8-13.9-27.7-25.2-43.7-25.2H313.5zM329.1 67.29999999999995h365.5l182.8 316.6-182.8 316.5H329.1L146.4 383.79999999999995l182.7-316.5z m374-29.2H320.7c-5.2 0-10 2.8-12.6 7.3L116.9 376.5c-2.6 4.5-2.6 10.1 0 14.6l191.2 331.1c2.6 4.5 7.4 7.3 12.6 7.3h382.4c5.2 0 10-2.8 12.6-7.3l191.2-331.1c2.6-4.5 2.6-10.1 0-14.6L715.7 45.39999999999998c-2.6-4.5-7.4-7.3-12.6-7.3zM264.8 337.6c-2.7 1.9-4.5 5.1-4.5 8.9 0 6.1 4.9 10.8 11 10.8 3.2 0 5.3-0.9 6.8-2.1 11-8.7 22.7-13.6 37.1-13.6s23.5 6.8 23.5 16.7v0.4c0 9.5-5.3 14.6-29.9 20.3-28.2 6.8-44.1 15.2-44.1 39.6v0.4c0 22.7 18.9 38.5 45.3 38.5 16.7 0 30.1-4.4 42.1-12.3 2.7-1.5 5.1-4.7 5.1-9.3 0-6.1-4.9-10.8-11-10.8-2.3 0-4.2 0.6-6.1 1.7-10.2 6.6-20.1 10-30.5 10-13.6 0-21.6-7-21.6-15.7v-0.4c0-10.2 6.1-14.8 31.6-20.8 28-6.8 42.4-16.9 42.4-38.8v-0.4c0-24.8-19.5-39.6-47.4-39.6-18-0.2-35.1 5.5-49.8 16.5zM419.2 433.8H387c-6.1 0-10.8 4.9-10.8 10.8s4.7 10.8 10.8 10.8h88c5.9 0 10.6-4.9 10.6-10.8s-4.7-10.8-10.6-10.8h-32.4v-100.4c0-6.4-5.3-11.6-11.7-11.6-6.4 0-11.7 5.1-11.7 11.6V433.8zM610.5 388.7v0.4c0 25.8-18.8 47.2-45.1 47.2s-44.7-21-44.7-46.8v-0.4c0-25.8 18.8-47 45.1-47s44.7 20.8 44.7 46.6z m-114.2 0v0.4c0 37.3 28.8 68.6 69.5 68.6s69.1-30.9 69.1-68.2v-0.4c0-37.3-28.8-68.6-69.5-68.6s-69.1 30.9-69.1 68.2zM713.5 386.4c17.6 0 28.6 9.9 28.6 23.7v0.4c0 15.5-11.2 23.7-28.6 23.7h-27.1v-47.7l27.1-0.1z m-50.4 57.2c0 6.6 5.1 11.7 11.7 11.7h40.5c31.1 0 50.4-17.6 50.4-44.3v-0.4c0-29.7-23.9-45.3-53-45.3h-26.3v-32c0-6.4-5.1-11.6-11.6-11.6-6.6 0-11.7 5.1-11.7 11.6V443.6z"  horiz-adv-x="1024" />
      
      <glyph glyph-name="camera" unicode="&#58881;" d="M891.787816 652.990361L730.550575 652.990361l-21.103644 41.932018c-2.450818 5.426593-24.76094 53.007261-56.271608 53.007261L366.81127 747.9296400000001c-31.510668 0-53.819766-47.580668-56.087413-52.640917l-21.273513-42.298362L128.198777 652.990361c-31.485085 0-57.110719-25.494651-57.110719-56.83545L71.088058 74.17972199999997c0-31.354102 25.625634-56.861032 57.110719-56.861032L891.774513 17.318689999999947c31.485085 0 57.110719 25.507954 57.110719 56.861032l0.026606 66.443271L948.911838 292.94723799999997 948.911838 596.1549110000001C948.910814 627.4957099999999 923.286204 652.990361 891.787816 652.990361zM510.976694 156.674575c-103.498212 0-187.701986 83.758636-187.701986 186.719612 0 102.947673 84.203774 186.706309 187.701986 186.706309s187.701986-83.758636 187.701986-186.706309C698.67868 240.432187 614.474906 156.674575 510.976694 156.674575zM789.573853 487.256712c-25.481348 0-46.217624 20.736277-46.217624 46.217624 0 25.481348 20.736277 46.204321 46.217624 46.204321 25.481348 0 46.204321-20.722974 46.204321-46.204321C835.779198 507.992989 815.055201 487.256712 789.573853 487.256712zM510.976694 466.972736c-68.579935 0-124.365472-55.432497-124.365472-123.579573 0-68.160379 55.786561-123.605156 124.365472-123.605156s124.365472 55.4458 124.365472 123.605156C635.342166 411.54024 579.555605 466.972736 510.976694 466.972736z"  horiz-adv-x="1024" />
      
      <glyph glyph-name="screen-outline" unicode="&#59050;" d="M276.864-21.33333300000004a21.333333 21.333333 0 0 0 0 42.666666H426.666667v85.333334H64C28.714667 106.66666699999996 0 135.38133300000004 0 170.66666699999996V725.333333c0 35.285333 28.714667 64 64 64h896c35.285333 0 64-28.714667 64-64v-554.666666c0-35.285333-28.714667-64-64-64H597.333333v-85.333334h148.864a21.333333 21.333333 0 0 0 0-42.666666h-469.333333z m277.802667 42.666666v85.333334h-85.333334v-85.333334h85.333334zM64 746.666667A21.333333 21.333333 0 0 1 42.666667 725.333333v-554.666666a21.333333 21.333333 0 0 1 21.333333-21.333334h896a21.333333 21.333333 0 0 1 21.333333 21.333334V725.333333a21.333333 21.333333 0 0 1-21.333333 21.333334h-896z"  horiz-adv-x="1024" />
      
      <glyph glyph-name="joystick" unicode="&#59768;" d="M955.733333 485.973333l-35.413333 142.506667A128 128 0 0 1 796.16 725.333333h-121.6a21.76 21.76 0 0 1-19.2-11.946666l-9.386667-18.773334a21.76 21.76 0 0 0-19.2-11.946666H397.226667a21.76 21.76 0 0 0-19.2 11.946666l-9.386667 18.773334A21.76 21.76 0 0 1 349.44 725.333333H227.84a128 128 0 0 1-124.16-96.853333L68.266667 485.973333a848.213333 848.213333 0 0 1-25.6-206.933333V128a85.333333 85.333333 0 0 1 85.333333-85.333333h26.88a128 128 0 0 1 128 107.093333l11.52 70.4a42.666667 42.666667 0 0 0 42.666667 35.84h354.133333a42.666667 42.666667 0 0 0 42.666667-35.84l11.52-70.4a128 128 0 0 1 128-107.093333H896a85.333333 85.333333 0 0 1 85.333333 85.333333v151.04a848.213333 848.213333 0 0 1-25.6 206.933333zM277.333333 384A106.666667 106.666667 0 1 0 384 490.666667 106.666667 106.666667 0 0 0 277.333333 384zM896 453.12a21.333333 21.333333 0 0 0-21.333333-21.333333h-69.12v-69.12a21.333333 21.333333 0 0 0-21.333334-21.333334h-32.426666a21.333333 21.333333 0 0 0-21.333334 21.333334v69.12H661.333333a21.333333 21.333333 0 0 0-21.333333 21.333333v32.426667a21.333333 21.333333 0 0 0 21.333333 21.333333h69.12V576a21.333333 21.333333 0 0 0 21.333334 21.333333h32.426666a21.333333 21.333333 0 0 0 21.333334-21.333333v-69.12h69.12a21.333333 21.333333 0 0 0 21.333333-21.333333z"  horiz-adv-x="1024" />
      
      <glyph glyph-name="time-outline" unicode="&#58942;" d="M827.871087 699.871087C743.498468 784.243707 631.321596 830.709995 512 830.709995c-119.319549 0-231.499491-46.465265-315.871087-130.837884S65.290005 503.319549 65.290005 384s46.465265-231.499491 130.837884-315.871087 196.551538-130.837884 315.871087-130.837884c119.321596 0 231.499491 46.465265 315.871087 130.837884S958.708971 264.68045099999995 958.708971 384 912.243707 615.499491 827.871087 699.871087zM531.556405-21.246651000000043l0 74.145697c0 11.31572-9.174963 20.491707-20.491707 20.491707-11.316743 0-20.491707-9.174963-20.491707-20.491707l0-74.059739C283.276738-10.322856999999999 116.693746 156.835234 106.755396 364.365824l72.351841 0c11.31572 0 20.491707 9.174963 20.491707 20.491707 0 11.31572-9.174963 20.491707-20.491707 20.491707l-72.273047 0c10.769274 206.737528 177.01253 373.005342 383.740848 383.813502l0-72.346725c0-11.316743 9.174963-20.491707 20.491707-20.491707 11.31572 0 20.491707 9.17394 20.491707 20.491707L531.558451 789.247674c207.593012-9.901511 374.807385-176.539762 385.609405-383.89946l-74.142627 0c-11.316743 0-20.491707-9.174963-20.491707-20.491707 0-11.316743 9.174963-20.491707 20.491707-20.491707l74.220399 0C907.275555 156.21204 739.720422-11.317510999999968 531.556405-21.246651000000043zM532.098757 392.881274L532.098757 637.7594710000001c0 11.316743-9.174963 20.491707-20.491707 20.491707-11.31572 0-20.491707-9.17394-20.491707-20.491707l0-254.66612c0-7.858992 4.429893-14.677281 10.924817-18.114566L693.447539 173.57243000000005c4.002151-4.000104 9.245572-6.001691 14.490016-6.001691s10.487865 2.001587 14.490016 6.001691c8.002254 8.002254 8.002254 20.977777 0 28.980032L532.098757 392.881274z"  horiz-adv-x="1024" />
      
      <glyph glyph-name="chick" unicode="&#61400;" d="M511.96928 793.6C342.33344 793.6 204.8 564.36736 204.8 281.6h0.07168c0-169.66656 137.53344-307.2 307.15904-307.2C681.66656-25.600000000000023 819.2 111.93344000000002 819.2 281.6c-0.03072 282.76736-137.5744 512-307.23072 512z m-136.4992-273.07008C394.33216 520.52992 409.6 505.27232 409.6 486.4s-15.26784-34.12992-34.12992-34.12992a34.12992 34.12992 0 1 0 0 68.25984zM409.6 145.07007999999996c-56.53504 0-102.4 45.80352-102.4 102.4 0 56.53504 45.86496 102.4 102.4 102.4 56.59648 0 102.4-45.86496 102.4-102.4 0-56.59648-45.80352-102.4-102.4-102.4z m102.4 426.65984a51.2 51.2 0 1 0 0.01024 102.38976A51.2 51.2 0 0 0 512 571.72992z m136.52992-426.65984A34.1504 34.1504 0 0 0 614.4 179.20000000000005a34.14016 34.14016 0 1 0 34.12992-34.12992z m0 221.85984c-28.2624 0-51.2 22.9376-51.2 51.2 0 28.34432 22.9376 51.2 51.2 51.2 28.30336 0 51.2-22.85568 51.2-51.2a51.2 51.2 0 0 0-51.2-51.2z"  horiz-adv-x="1024" />
      
      <glyph glyph-name="egg" unicode="&#58950;" d="M511.96928 793.6C342.33344 793.6 204.8 564.36736 204.8 281.6h0.07168c0-169.66656 137.53344-307.2 307.15904-307.2C681.66656-25.600000000000023 819.2 111.93344000000002 819.2 281.6c-0.03072 282.76736-137.5744 512-307.23072 512z m-136.4992-273.07008C394.33216 520.52992 409.6 505.27232 409.6 486.4s-15.26784-34.12992-34.12992-34.12992a34.12992 34.12992 0 1 0 0 68.25984zM409.6 145.07007999999996c-56.53504 0-102.4 45.80352-102.4 102.4 0 56.53504 45.86496 102.4 102.4 102.4 56.59648 0 102.4-45.86496 102.4-102.4 0-56.59648-45.80352-102.4-102.4-102.4z m102.4 426.65984a51.2 51.2 0 1 0 0.01024 102.38976A51.2 51.2 0 0 0 512 571.72992z m136.52992-426.65984A34.1504 34.1504 0 0 0 614.4 179.20000000000005a34.14016 34.14016 0 1 0 34.12992-34.12992z m0 221.85984c-28.2624 0-51.2 22.9376-51.2 51.2 0 28.34432 22.9376 51.2 51.2 51.2 28.30336 0 51.2-22.85568 51.2-51.2a51.2 51.2 0 0 0-51.2-51.2z"  horiz-adv-x="1024" />
      
      <glyph glyph-name="save" unicode="&#58880;" d="M931.882 636.118l-167.764 167.764A96 96 0 0 1 696.236 832H160C106.98 832 64 789.02 64 736v-704c0-53.02 42.98-96 96-96h704c53.02 0 96 42.98 96 96V568.236a96 96 0 0 1-28.118 67.882zM512 64c-70.692 0-128 57.308-128 128 0 70.692 57.308 128 128 128s128-57.308 128-128c0-70.692-57.308-128-128-128z m192 609.04V472c0-13.254-10.746-24-24-24H216c-13.254 0-24 10.746-24 24V680c0 13.254 10.746 24 24 24h457.04c6.366 0 12.47-2.528 16.97-7.03l6.96-6.96A23.992 23.992 0 0 0 704 673.04z"  horiz-adv-x="1024" />
      
      <glyph glyph-name="dot-mini" unicode="&#58964;" d="M512 384m-87.02511 0a85.039 85.039 0 1 1 174.05022 0 85.039 85.039 0 1 1-174.05022 0Z"  horiz-adv-x="1024" />
      
      <glyph glyph-name="editor" unicode="&#59012;" d="M823.672974 596.686007L679.488107 740.86064l72.121598 72.086805c23.899316 23.86657 62.591547 23.86657 86.48677 0l57.665351-57.659211c23.901363-23.901363 23.901363-62.654992 0-86.549192L823.672974 596.686007 823.672974 596.686007zM404.795884 177.82835999999998L260.615111 322.004017l391.976416 388.894218 144.18282-144.175657L404.795884 177.82835999999998 404.795884 177.82835999999998zM144.786059 59.58942200000001l87.722924 234.313583L375.482255 150.89698799999996 144.786059 59.58942200000001 144.786059 59.58942200000001zM792.286126 10.311089000000038c20.181645 0 36.519752-16.33913 36.519752-36.520775 0-20.152992-16.33913-36.494169-36.519752-36.494169L146.485771-62.703854999999976c-20.147876 0-36.494169 16.341177-36.494169 36.494169 0 20.182668 16.34527 36.520775 36.494169 36.520775L792.286126 10.311089000000038 792.286126 10.311089000000038zM792.286126 10.311089000000038"  horiz-adv-x="1024" />
      
      <glyph glyph-name="arrow-dropright" unicode="&#58916;" d="M429.305603 598.652801L429.305603 169.34719900000005 638.156258 384.193405Z"  horiz-adv-x="1024" />
      
      <glyph glyph-name="desktop" unicode="&#58947;" d="M962.10989 828.483516l-900.21978 0C27.762778 828.483516 0 800.718488 0 766.5934070000001l0-585.142857C0 147.325468 27.762778 119.56043999999997 61.89011 119.56043999999997l900.21978 0c34.125081 0 61.89011 27.765029 61.89011 61.89011l0 585.142857C1024 800.718488 996.234971 828.483516 962.10989 828.483516zM61.89011 794.725275l900.21978 0c15.513037 0 28.131868-12.618831 28.131868-28.131868L990.241758 265.84615399999996 33.758242 265.84615399999996 33.758242 766.5934070000001C33.758242 782.106444 46.377073 794.725275 61.89011 794.725275zM962.10989 153.31868099999997l-900.21978 0c-15.513037 0-28.131868 12.618831-28.131868 28.131868L33.758242 232.08791199999996l956.483516 0 0-50.637363C990.241758 165.93751199999997 977.622927 153.31868099999997 962.10989 153.31868099999997zM647.703631 539.5669800000001c-3.186778 3.362321-7.61811 5.268536-12.249741 5.268536s-9.062963-1.906215-12.249741-5.268536l-72.256141-76.239613-105.253697 111.053363c-3.186778 3.362321-7.615859 5.268536-12.249741 5.268536s-9.062963-1.906215-12.251991-5.268536l-101.486277-107.081143c-6.411815-6.767402-6.125996-17.45076 0.641407-23.862576 6.767402-6.416316 17.45076-6.125996 23.862576 0.639156l89.234286 94.153987 105.253697-111.053363c3.186778-3.362321 7.61811-5.268536 12.249741-5.268536s9.062963 1.906215 12.249741 5.268536l72.256141 76.239613 44.340325-46.784422c6.414066-6.767402 17.099675-7.053222 23.862576-0.639156 6.767402 6.411815 7.053222 17.095174 0.639156 23.862576L647.703631 539.5669800000001zM550.945758 567.768615c18.614295 0 33.758242 15.143947 33.758242 33.758242s-15.143947 33.758242-33.758242 33.758242-33.758242-15.143947-33.758242-33.758242S532.329213 567.768615 550.945758 567.768615zM264.43956 348.36705099999995l495.120879 0c9.324026 0 16.879121 7.555095 16.879121 16.879121L776.43956 695.325257c0 9.324026-7.555095 16.879121-16.879121 16.879121l-495.120879 0c-9.321776 0-16.879121-7.555095-16.879121-16.879121l0-330.079086C247.56044 355.922145 255.117785 348.36705099999995 264.43956 348.36705099999995zM281.318681 678.446136l461.362637 0 0-296.320844L281.318681 382.12529199999994 281.318681 678.446136zM782.065934-26.72527500000001L641.406593-26.72527500000001l0 95.648352c0 9.324026-7.555095 16.879121-16.879121 16.879121s-16.879121-7.555095-16.879121-16.879121L607.648352-26.72527500000001l-191.296703 0 0 95.648352c0 9.324026-7.557345 16.879121-16.879121 16.879121s-16.879121-7.555095-16.879121-16.879121L382.593407-26.72527500000001l-140.659341 0c-9.321776 0-16.879121-7.555095-16.879121-16.879121s7.557345-16.879121 16.879121-16.879121l540.131868 0c9.324026 0 16.879121 7.555095 16.879121 16.879121S791.38996-26.72527500000001 782.065934-26.72527500000001z"  horiz-adv-x="1024" />
      
      <glyph glyph-name="audio" unicode="&#58907;" d="M845.16248187 656.94993469c0 0-2.54000063 8.35531594-12.12340031 7.35185906-37.50165-3.92039437-16.25242125-35.72768063-16.25242125-35.72768063 59.71721813-64.42860281 96.51235219-150.40657406 96.51235219-245.181435s-36.79513406-180.75283312-96.51235219-245.181435c0 0-16.38105375-29.25064688 16.25242125-35.72768062 9.35813344-1.85780344 12.12340031 7.35185906 12.12340031 7.35185906 66.96860344 71.70430688 108.26649563 167.69893125 108.26649563 273.5572575S912.13108531 585.2456287499999 845.16248187 656.94993469zM712.64918563 543.91189875c-21.15643406-19.9001925-9.83554406-29.31080344-9.83554407-29.31080344 30.719355-35.25027094 49.96550906-80.77765781 49.96550906-131.20841719s-19.24615406-95.95878656-49.96550906-131.20841718c0 0-10.11648562-17.15924438 9.83554406-29.31080344 8.40331312-5.11647937 18.54027844 0.93498188 18.54027844 0.93498187 37.95474188 42.55797281 61.7196525 98.07321375 61.7196525 159.58487907s-23.76491062 117.02690625-61.7196525 159.58487906C731.18946406 542.97691781 719.48715781 550.3447753099999 712.64918563 543.91189875zM467.7646925 682.7044809399999l-195.66133875-139.42998282L190.96091844 543.2744990599999c-66.49119281 0-120.38989594-53.89870219-120.38989594-120.38989594L70.5710225 342.62467313c0-66.49119281 53.89870219-120.38989594 120.38989594-120.38989594l78.77522344 0 216.20405156-143.11935094c91.86112312-47.85876094 106.32037687 16.75031062 106.21606406 61.0739325L592.15625656 640.30713844C591.709565 676.55702625 567.3392525 740.15496094 467.7646925 682.7044809399999zM552.04933062 196.24344562c0-112.04289844-8.53578469-96.19941188-81.70432031-47.50166343L297.79454375 262.3653825 211.02558125 262.3653825c-55.40708812 0-100.32459281 44.91750562-100.32459281 100.32459281l0 40.129965c0 55.40708812 44.91750562 100.32459281 100.32459281 100.32459282l88.56277031-1e-8L456.36380656 615.20983125c91.50018563 66.19041187 95.68552406 56.57501438 95.68552407-32.97457312L552.04933062 196.24344562z"  horiz-adv-x="1024" />
      
      <glyph glyph-name="trash-outline" unicode="&#58892;" d="M804.414 772.566h-156.903c-7.827 67.871-65.572 120.767-135.51 120.767-69.935 0-127.672-52.893-135.499-120.767h-156.911c-63.498 0-115.15-51.667-115.15-115.163v-5.909c0-48.523 30.213-90.055 72.775-106.977v-544.022c0-63.498 51.659-115.163 115.152-115.163h439.272c63.495 0 115.15 51.67 115.15 115.163v544.02c42.559 16.924 72.775 58.456 72.775 106.977v5.909c0 63.498-51.657 115.165-115.15 115.165zM512 838.718c39.777 0 72.978-28.51 80.324-66.151h-160.633c7.344 37.643 40.547 66.151 80.309 66.151zM792.174 0.4959999999999809c0-33.385-27.163-60.55-60.537-60.55h-439.272c-33.374 0-60.537 27.167-60.537 60.55v535.836h560.347v-535.836zM864.948 651.495c0-33.385-27.163-60.55-60.537-60.55h-584.822c-33.374 0-60.537 27.165-60.537 60.55v5.909c0 33.385 27.163 60.55 60.537 60.55h584.824c33.374 0 60.537-27.165 60.537-60.55v-5.909zM365.594 9.791000000000054c15.082 0 27.307 12.23 27.307 27.305v307.468c0 15.078-12.227 27.309-27.307 27.309s-27.307-12.232-27.307-27.309v-307.468c-0.002-15.08 12.225-27.305 27.307-27.305zM512 9.791000000000054c15.082 0 27.309 12.23 27.309 27.305v307.468c0 15.078-12.232 27.309-27.309 27.309-15.08 0-27.307-12.232-27.307-27.309v-307.468c0-15.08 12.225-27.305 27.307-27.305zM658.406 9.791000000000054c15.08 0 27.305 12.23 27.305 27.305v307.468c0 15.078-12.227 27.309-27.305 27.309-15.084 0-27.309-12.232-27.309-27.309v-307.468c-0.002-15.08 12.23-27.305 27.309-27.305z"  horiz-adv-x="1024" />
      
      <glyph glyph-name="robot" unicode="&#58906;" d="M935 448h-15.7c-4.1 40.5-14.2 79.9-30.1 117.6-20.6 48.8-50.2 92.6-87.8 130.2S720 763 671.3 783.6C620.8 805 567.1 815.8 511.9 815.8c-55.3 0-108.9-10.8-159.4-32.2-48.8-20.6-92.6-50.2-130.2-87.8-30.2-30.2-55.2-64.4-74.5-101.9l-24 23.6-39-53.6 41.3-20c-3.8-10.6-7.1-21.3-10-32.1H77.4l9.4-63.2 18.4 6.3c-0.3-2.3-0.5-4.6-0.8-6.9H89c-13.8 0-25-11.2-25-25v-78c0-13.8 11.2-25 25-25h30c13.7 0 25 11.2 25 25v78c0 7.3-3.2 13.9-8.2 18.4 0.8 8.4 1.8 16.8 3.2 25.1l31 10.6c-4.8-22.9-7.3-46.7-7.3-71 0-15.6 1-30.9 3-45.9l3.7-5.9c34.3-55.1 82.6-100.8 139.5-132.1 44.6-24.5 93.9-39.6 144.5-44.6 5.7 8.6 15.6 14.4 26.6 14.4h64.1c17.6 0 32-14.4 32-32v-0.1c0-17.6-14.4-32-32-32H480c-12.4 0-23.3 7.2-28.5 17.6-55.4 5.3-109.2 21.7-158 48.5-39.9 21.9-75.9 50.4-106.4 83.9 49.2-123.8 167.5-212.6 307.4-218.7L469.7 2s190.8 91.2 194.2 92.9c114.3 56.8 193 174.7 193 311 0 191.7-155.4 347.1-347.1 347.1-140.8 0-262-83.9-316.4-204.5L171.6 570c18.4 38.1 43 72.7 73.2 102.9 34.7 34.7 75.1 61.9 120 80.9 46.5 19.7 96 29.7 147 29.7s100.4-10 147-29.7c45-19 85.3-46.2 120-80.9s61.9-75.1 80.9-120c15.2-35.8 24.6-73.4 28.1-112-4.8-4.6-7.8-11-7.8-18.1v-78c0-13.8 11.2-25 25-25h30c13.7 0 25 11.2 25 25v78c0 14-11.2 25.2-25 25.2zM509.8 563.6c172 0 311.5-61.3 311.5-137s-139.5-137-311.5-137-311.5 61.3-311.5 137 139.5 137 311.5 137z m-330.6-51.7h-30c1.8 6 3.7 12 5.7 18l26.1-12.6-1.8-5.4zM314.5 388.9l98.6 18.9c13.7 2.6 16.1 21.3 3.5 27.2-32.3 15.2-76.2 32.7-93.1 24.9-17.9-8.3-24-36.2-26.1-55.4-1.1-9.6 7.6-17.4 17.1-15.6zM617.9 407.8l98.6-18.9c9.5-1.8 18.2 6 17.1 15.7-2.1 19.2-8.3 47.1-26.1 55.4-16.9 7.9-60.7-9.7-93.1-24.9-12.6-6-10.2-24.6 3.5-27.3z"  horiz-adv-x="1024" />
      
      </font>
</defs>
</svg>
